<?xml version="1.0" standalone="no"?>
<!DOCTYPE svg PUBLIC "-//W3C//DTD SVG 20010904//EN"
 "http://www.w3.org/TR/2001/REC-SVG-20010904/DTD/svg10.dtd">
<svg version="1.0" xmlns="http://www.w3.org/2000/svg"
 width="1024.000000pt" height="1024.000000pt" viewBox="0 0 1024.000000 1024.000000"
 preserveAspectRatio="xMidYMid meet">
<metadata>
Created by potrace 1.16, written by Peter Selinger 2001-2019
</metadata>
<g transform="translate(0.000000,1024.000000) scale(0.100000,-0.100000)"
fill="#000000" stroke="none">
<path d="M9635 9363 c-11 -2 -29 -15 -40 -28 -34 -39 -122 -56 -320 -65 -132
-5 -28 -7 393 -8 322 -1 572 2 572 7 0 5 -7 14 -15 21 -13 11 -20 11 -40 0
-18 -10 -50 -11 -122 -6 -202 14 -251 22 -291 49 -37 25 -100 39 -137 30z"/>
<path d="M5370 9270 c-96 -3 163 -6 575 -6 413 0 696 3 630 6 -141 9 -953 8
-1205 0z"/>
<path d="M700 9219 c264 -12 2768 -13 6245 -3 l3110 10 -4765 0 c-2621 1
-4686 -3 -4590 -7z"/>
<path d="M6390 7326 c0 -2 7 -7 16 -10 8 -3 12 -2 9 4 -6 10 -25 14 -25 6z"/>
<path d="M6540 7237 c0 -2 42 -36 93 -74 131 -99 233 -196 233 -222 0 -13 -5
-20 -13 -17 -7 3 -13 -1 -13 -9 0 -8 -4 -15 -9 -15 -5 0 -8 8 -6 18 1 9 0 11
-2 4 -3 -8 -11 -11 -19 -8 -9 3 -12 1 -9 -4 3 -6 2 -10 -4 -10 -15 0 -23 18
-11 25 5 3 10 12 10 18 0 7 -5 4 -11 -6 -6 -9 -14 -15 -20 -12 -5 4 -9 3 -9
-2 0 -18 16 -30 38 -28 12 1 21 -2 20 -7 -2 -5 -7 -9 -12 -8 -5 1 -13 -4 -17
-12 -7 -10 -9 -10 -9 0 0 6 -11 12 -25 12 -14 0 -25 4 -25 10 0 5 6 8 13 6 6
-1 9 -1 4 1 -4 3 -4 10 -1 16 4 7 -1 5 -10 -4 -18 -17 -12 -49 9 -49 8 0 17
-4 20 -10 7 -11 -23 -2 -42 13 -9 6 -13 6 -13 -1 0 -5 -13 -15 -29 -20 -23 -8
-28 -15 -24 -31 3 -12 1 -21 -4 -21 -11 0 -9 42 1 59 4 5 -4 15 -16 21 -18 8
-20 8 -7 -1 15 -11 15 -15 1 -39 -13 -23 -22 -27 -63 -26 -26 0 -45 4 -43 7 2
4 -3 10 -12 13 -9 3 -12 2 -9 -5 4 -5 1 -16 -5 -24 -7 -8 -9 -15 -4 -15 4 0 0
-6 -10 -13 -16 -12 -16 -14 -2 -14 9 0 16 5 16 11 0 6 5 4 10 -4 5 -8 10 -10
10 -4 0 5 -5 15 -11 21 -8 8 -8 13 0 17 6 4 12 1 12 -6 7 -75 6 -86 -7 -81
-17 6 -18 20 -1 26 7 3 5 6 -5 6 -10 1 -18 -3 -18 -8 0 -21 13 -41 26 -41 8 0
14 -4 14 -10 0 -5 5 -10 11 -10 5 0 7 5 3 11 -4 8 0 8 15 0 11 -7 21 -14 21
-17 0 -3 -4 -3 -9 0 -13 8 -42 -4 -35 -15 3 -5 10 -6 16 -3 7 4 8 2 4 -4 -3
-6 4 -21 16 -33 18 -17 19 -20 6 -16 -28 10 -21 -6 20 -46 21 -21 42 -34 47
-30 4 5 5 2 0 -5 -4 -9 4 -25 23 -45 79 -84 202 -281 277 -442 28 -60 55 -117
60 -125 5 -8 10 -23 10 -33 1 -10 6 -22 11 -25 5 -4 10 -18 11 -32 1 -33 43
-182 54 -196 5 -6 7 -19 3 -27 -3 -9 0 -33 6 -53 7 -20 13 -67 15 -103 1 -36
7 -77 14 -90 9 -16 14 -72 15 -165 1 -123 -2 -146 -17 -170 -15 -22 -17 -38
-12 -73 5 -32 2 -51 -9 -68 -9 -13 -15 -39 -14 -59 1 -19 -4 -41 -10 -48 -6
-8 -10 -27 -10 -43 1 -35 -21 -146 -31 -160 -4 -5 -27 -56 -51 -112 -24 -56
-50 -110 -59 -120 -21 -23 -36 -55 -56 -120 -20 -62 -110 -200 -172 -262 -24
-25 -51 -60 -60 -78 -22 -47 -94 -124 -164 -178 -33 -25 -62 -45 -65 -45 -10
0 -149 -98 -168 -118 -16 -19 -311 -171 -427 -220 -57 -25 -206 -54 -235 -46
-12 3 -33 -1 -45 -9 -59 -37 -128 -45 -379 -45 -243 0 -338 8 -351 29 -4 7
-17 9 -30 6 -14 -3 -32 0 -43 8 -10 8 -38 17 -62 21 l-44 6 0 548 0 548 438 4
c437 4 437 4 534 31 346 95 611 309 758 611 76 156 101 259 107 449 8 239 -21
380 -120 570 -51 99 -136 214 -154 210 -6 -1 -19 8 -29 20 l-19 22 23 -19 c29
-25 29 -6 -1 23 -15 13 -30 19 -40 15 -10 -3 -17 -1 -17 6 0 6 5 8 13 4 6 -4
3 3 -8 16 -33 37 -195 151 -195 136 0 -3 24 -21 53 -40 40 -26 131 -100 109
-89 -3 2 -11 -2 -18 -7 -16 -14 -54 -21 -54 -10 0 5 5 12 12 16 12 8 -17 34
-36 34 -6 -1 0 -7 14 -16 21 -12 21 -14 5 -12 -11 2 -20 -3 -21 -9 -1 -7 -3
-16 -4 -20 -1 -5 -2 -12 -1 -16 1 -5 -3 -6 -9 -2 -6 3 -7 12 -3 18 11 18 12
37 2 37 -5 0 -9 -7 -9 -16 0 -8 -5 -12 -10 -9 -6 4 -7 11 -4 17 4 6 1 9 -6 6
-8 -2 -16 -10 -18 -18 -3 -7 0 -10 7 -6 6 4 11 3 11 -2 0 -17 -13 -22 -28 -9
-13 10 -15 9 -8 -3 4 -8 0 -6 -8 4 -16 20 -16 20 -16 0 0 -12 7 -21 15 -22 8
-1 22 -3 30 -4 8 -1 15 -6 15 -11 0 -5 -7 -6 -16 -3 -9 3 -30 6 -47 6 -24 0
-28 3 -17 10 12 8 12 10 1 10 -11 0 -11 3 0 18 13 15 12 16 -3 3 -10 -7 -16
-17 -13 -21 10 -16 -16 -22 -33 -8 -15 11 -16 11 -4 -3 10 -13 9 -19 -3 -29
-8 -7 -13 -16 -10 -20 3 -4 -3 -11 -12 -14 -9 -4 -20 -2 -23 4 -5 8 -9 6 -13
-5 -4 -9 -3 -13 3 -10 6 3 10 -1 10 -9 0 -15 12 -21 33 -17 5 1 6 -3 2 -9 -4
-7 -12 -7 -26 0 -11 6 -25 8 -31 4 -7 -5 -8 -3 -3 6 5 9 4 11 -3 6 -7 -4 -12
-2 -12 4 0 7 -6 10 -12 8 -16 -6 -19 -46 -5 -55 6 -4 7 4 3 21 -4 18 -3 25 4
21 5 -3 10 -15 10 -27 0 -16 3 -18 13 -10 10 8 13 6 14 -11 2 -17 0 -19 -7 -7
-8 12 -10 11 -11 -5 0 -15 -2 -16 -7 -5 -9 20 -33 24 -45 8 -6 -10 -7 -8 -3 4
3 10 1 20 -3 22 -15 10 -6 -35 9 -45 12 -9 12 -10 -3 -5 -14 4 -17 2 -15 -12
2 -9 10 -16 17 -14 8 2 10 -4 6 -18 -3 -11 -2 -20 2 -20 11 0 93 -76 93 -86 0
-4 -15 6 -32 23 -18 16 -51 41 -73 54 -22 13 -41 31 -43 39 -2 11 1 11 11 -2
20 -25 30 -22 15 5 -7 12 -11 28 -10 35 2 6 -2 12 -8 12 -9 0 -15 -29 -11 -52
1 -11 -2 -10 -51 11 -107 46 -165 51 -568 51 -296 0 -382 -3 -385 -12 -2 -7
-5 -210 -7 -451 -3 -321 -7 -440 -16 -449 -9 -9 -12 -9 -12 1 0 9 -9 12 -25 9
-14 -3 -25 -1 -25 3 0 5 7 10 15 10 8 1 20 2 27 3 6 0 13 7 16 15 3 10 0 12
-12 8 -13 -5 -15 -2 -12 18 3 17 0 25 -9 25 -8 0 -12 8 -9 23 4 20 4 20 -5 2
-5 -12 -5 -24 0 -29 13 -15 11 -28 -3 -20 -9 5 -8 2 1 -9 8 -10 11 -20 7 -24
-3 -3 -6 -1 -6 5 0 7 -5 12 -10 12 -6 0 -9 -3 -9 -7 3 -21 -2 -33 -13 -31 -8
2 -13 -7 -13 -22 0 -20 -6 -26 -27 -28 -16 -2 -28 -8 -28 -13 0 -5 12 -7 28
-4 l27 5 -27 -11 c-16 -6 -28 -15 -28 -20 0 -6 -5 -7 -10 -4 -6 4 -8 10 -6 14
3 4 -3 7 -13 8 -10 1 -18 -4 -18 -12 0 -7 6 -11 12 -8 19 7 26 -25 9 -42 -17
-17 -28 -20 -19 -5 3 6 1 10 -4 10 -6 0 -11 8 -12 18 0 12 -3 10 -11 -8 -6
-14 -12 -29 -12 -34 -1 -6 -24 -10 -53 -10 -29 1 -50 -3 -47 -8 4 -5 8 -7 11
-4 9 8 35 -23 28 -34 -8 -13 -56 -5 -66 11 -4 8 -9 4 -14 -10 -3 -12 -10 -19
-15 -16 -8 5 -4 -41 6 -56 2 -4 0 -11 -6 -14 -6 -4 -9 -3 -8 2 3 9 -5 13 -24
13 -9 0 -8 -4 2 -10 8 -5 10 -10 5 -10 -6 0 -11 -8 -12 -17 -2 -27 -8 -46 -17
-62 -7 -10 -5 -12 3 -6 8 4 6 -3 -3 -18 -10 -14 -15 -36 -12 -51 3 -15 1 -24
-3 -22 -5 3 -9 63 -10 133 -1 70 -4 129 -6 132 -3 2 -6 -247 -7 -555 -2 -754
-2 -803 7 -850 4 -27 3 -44 -4 -48 -6 -4 -11 -23 -11 -42 l0 -36 -97 68 c-119
81 -226 170 -312 258 -36 36 -69 62 -74 59 -6 -3 -7 -1 -3 6 8 13 -71 108 -86
103 -5 -1 -7 2 -3 8 6 10 -29 64 -38 58 -7 -4 -47 34 -47 45 0 5 9 -1 20 -14
34 -41 22 -12 -25 60 -55 85 -145 263 -176 350 -13 35 -24 60 -26 54 -2 -5 15
-54 38 -109 23 -54 42 -107 42 -116 1 -9 4 -15 7 -13 4 2 18 -19 33 -48 15
-29 39 -72 53 -97 27 -45 27 -45 2 -20 -13 14 -23 27 -21 29 5 8 -18 41 -26
36 -5 -2 -8 3 -7 13 1 19 -34 18 -46 -1 -6 -9 -8 -9 -8 0 0 7 -6 10 -13 7 -9
-3 -13 4 -11 25 1 21 -3 31 -17 34 -10 3 -17 0 -16 -7 1 -6 -4 -10 -12 -8 -12
3 -12 0 -1 -12 11 -14 9 -16 -14 -16 -15 0 -25 4 -21 9 3 5 1 12 -4 15 -6 4
-8 -10 -6 -31 2 -21 1 -30 -2 -20 -3 11 -11 16 -19 13 -7 -3 -16 -1 -20 5 -3
6 -14 1 -25 -12 l-19 -22 4 29 c2 16 1 23 -1 17 -2 -7 -9 -13 -13 -13 -6 0 -6
-10 0 -24 6 -16 4 -30 -5 -43 -8 -11 -12 -23 -10 -27 3 -3 2 -4 -2 -1 -3 3
-13 -1 -22 -8 -14 -10 -14 -10 -3 5 9 11 10 18 2 23 -5 3 -10 1 -10 -6 0 -8
-4 -8 -15 1 -11 9 -13 16 -6 23 7 7 17 5 30 -7 19 -17 20 -17 29 1 6 12 5 28
-5 48 -13 27 -13 28 -9 4 4 -18 1 -26 -9 -26 -11 0 -14 7 -10 21 4 14 1 12
-10 -7 -9 -15 -20 -25 -25 -22 -6 3 -9 -5 -8 -19 1 -13 6 -22 10 -20 4 3 8 0
8 -6 0 -6 -6 -10 -12 -9 -7 1 -24 1 -37 0 -24 -1 -24 -1 -5 -15 14 -10 23 -11
32 -4 9 8 16 8 25 -1 9 -10 8 -11 -4 -6 -10 4 -20 1 -24 -5 -5 -7 -11 -8 -19
-1 -10 8 -36 9 -56 1 -3 -1 -9 -2 -14 -1 -4 1 14 -40 42 -91 39 -73 55 -93 71
-92 11 1 18 -3 15 -7 -3 -5 -10 -6 -16 -3 -6 4 -9 1 -6 -7 3 -8 10 -14 16 -14
5 0 14 -4 19 -9 5 -5 3 -6 -4 -2 -16 9 -16 1 -2 -25 5 -11 14 -17 19 -14 5 3
12 0 16 -6 4 -8 3 -9 -4 -5 -25 15 -9 -12 58 -103 342 -464 828 -792 1380
-931 428 -108 890 -100 1316 24 967 282 1675 1150 1765 2166 14 165 7 463 -16
610 -45 285 -148 579 -293 835 -75 132 -196 301 -212 297 -6 -1 -8 2 -5 8 8
13 -24 52 -35 45 -4 -3 -14 3 -21 12 -10 12 -10 14 -1 9 66 -40 -166 202 -288
300 -90 72 -180 137 -180 131z m433 -400 c-3 -5 -9 -4 -13 3 -4 6 -10 11 -14
11 -3 -1 -6 2 -5 5 1 10 -54 43 -62 38 -4 -2 -11 1 -15 7 -5 9 -1 10 14 7 20
-6 21 -5 4 21 -9 15 8 3 40 -28 31 -30 54 -59 51 -64z m-57 30 c4 -4 0 -7 -9
-7 -9 0 -18 4 -21 9 -7 10 20 9 30 -2z m-234 -59 c-15 -15 -16 -31 -1 -22 8 5
8 1 0 -14 -14 -27 -28 -35 -28 -17 0 8 5 11 10 8 6 -4 8 1 4 11 -6 16 13 60
22 50 3 -2 -1 -10 -7 -16z m-108 -35 c9 -21 -3 -36 -18 -24 -7 6 -17 7 -21 3
-5 -4 -5 -1 0 7 4 8 2 16 -5 21 -7 5 -2 8 13 8 14 0 28 -7 31 -15z m33 -8 c0
-8 -4 -12 -9 -9 -5 3 -6 10 -3 15 9 13 12 11 12 -6z m-754 -504 c-4 -3 -11
-10 -15 -15 -4 -4 -6 1 -5 12 1 12 6 18 15 15 7 -3 10 -9 5 -12z m-37 -32 c-2
-17 -8 -34 -12 -37 -4 -4 -4 1 -1 11 4 9 2 17 -2 17 -7 0 -8 17 -2 38 1 1 6 2
12 2 6 0 8 -13 5 -31z m-31 -19 c3 -5 -1 -10 -10 -10 -9 0 -13 5 -10 10 3 6 8
10 10 10 2 0 7 -4 10 -10z m-340 -95 c39 -8 108 -33 154 -55 150 -72 283 -233
322 -387 7 -29 16 -53 20 -53 4 0 7 -24 7 -52 0 -29 1 -88 2 -132 1 -43 -2
-88 -8 -100 -5 -11 -16 -41 -23 -66 -28 -93 -61 -145 -145 -226 -66 -65 -102
-91 -176 -127 -128 -63 -178 -69 -546 -69 -389 0 -437 2 -397 12 l30 8 -32 1
-33 1 0 630 0 630 378 0 c294 0 392 -4 447 -15z m-845 -915 c0 -5 -5 -10 -11
-10 -5 0 -7 5 -4 10 3 6 8 10 11 10 2 0 4 -4 4 -10z m-46 -21 c-4 -7 -44 0
-44 7 0 2 11 3 24 2 14 -1 23 -5 20 -9z m-229 -119 c3 -5 2 -10 -4 -10 -5 0
-13 5 -16 10 -3 6 -2 10 4 10 5 0 13 -4 16 -10z m38 -25 c4 -8 3 -16 -1 -19
-4 -3 -9 4 -9 15 -2 23 3 25 10 4z m-23 -17 c0 -6 -6 -5 -15 2 -8 7 -15 14
-15 16 0 2 7 1 15 -2 8 -4 15 -11 15 -16z m-87 -2 c14 2 16 -1 7 -11 -8 -10
-8 -15 1 -21 8 -5 10 -3 4 7 -5 8 -4 10 0 6 14 -12 15 -38 2 -30 -7 4 -19 6
-28 5 -9 -2 -22 4 -29 13 -8 10 -9 15 -1 15 6 0 11 8 11 18 0 10 3 13 8 6 4
-6 15 -10 25 -8z m-62 -109 c-10 -9 -11 -8 -5 6 3 10 9 15 12 12 3 -3 0 -11
-7 -18z m-921 -648 c0 -5 -4 -9 -8 -9 -5 0 -9 7 -9 15 0 8 4 12 9 9 4 -3 8 -9
8 -15z m-20 -23 c0 -3 -4 -8 -10 -11 -5 -3 -10 -1 -10 4 0 6 5 11 10 11 6 0
10 -2 10 -4z m45 -45 c3 -5 2 -12 -3 -15 -5 -3 -9 1 -9 9 0 17 3 19 12 6z
m-333 -130 c-2 -24 1 -41 7 -41 6 0 8 7 5 15 -4 8 -2 15 4 15 6 0 9 -8 7 -17
-2 -10 -4 -22 -4 -26 -2 -17 -22 6 -41 45 -21 44 -19 58 8 54 14 -3 16 -11 14
-45z m44 -102 c0 -19 -1 -19 -13 -3 -7 10 -13 21 -13 26 0 4 6 5 13 2 7 -2 13
-14 13 -25z"/>
<path d="M6555 6760 c3 -5 8 -10 11 -10 2 0 4 5 4 10 0 6 -5 10 -11 10 -5 0
-7 -4 -4 -10z"/>
<path d="M4663 6075 c-10 -11 -13 -144 -13 -594 0 -319 3 -582 8 -584 4 -3 6
252 4 566 -2 427 1 578 9 594 l12 23 376 3 376 2 -380 2 c-318 2 -382 0 -392
-12z"/>
<path d="M5488 6063 c6 -2 18 -2 25 0 6 3 1 5 -13 5 -14 0 -19 -2 -12 -5z"/>
<path d="M4220 4990 c0 -5 5 -10 11 -10 5 0 7 5 4 10 -3 6 -8 10 -11 10 -2 0
-4 -4 -4 -10z"/>
<path d="M5128 7193 c6 -2 18 -2 25 0 6 3 1 5 -13 5 -14 0 -19 -2 -12 -5z"/>
<path d="M5208 7193 c7 -3 16 -2 19 1 4 3 -2 6 -13 5 -11 0 -14 -3 -6 -6z"/>
<path d="M5008 7143 c72 -2 192 -2 265 0 72 1 13 3 -133 3 -146 0 -205 -2
-132 -3z"/>
<path d="M5568 7143 c7 -3 16 -2 19 1 4 3 -2 6 -13 5 -11 0 -14 -3 -6 -6z"/>
<path d="M4773 7123 c15 -2 37 -2 50 0 12 2 0 4 -28 4 -27 0 -38 -2 -22 -4z"/>
<path d="M5448 7123 c12 -2 32 -2 45 0 12 2 2 4 -23 4 -25 0 -35 -2 -22 -4z"/>
<path d="M4656 7102 c-2 -4 12 -6 32 -4 56 5 62 10 15 11 -23 1 -44 -3 -47 -7z"/>
<path d="M5558 7103 c12 -2 30 -2 40 0 9 3 -1 5 -23 4 -22 0 -30 -2 -17 -4z"/>
<path d="M5740 7095 c46 -18 64 -17 25 0 -16 8 -37 14 -45 14 -8 0 1 -7 20
-14z"/>
<path d="M4575 7080 c-3 -5 -15 -10 -26 -10 -10 0 -29 -5 -42 -12 -48 -24 -57
-28 -77 -28 -11 0 -20 -4 -20 -10 0 -5 -13 -10 -30 -10 -16 0 -30 -4 -30 -10
0 -5 -9 -10 -20 -10 -11 0 -20 -4 -20 -10 0 -5 -9 -10 -20 -10 -11 0 -20 -4
-20 -10 0 -5 -9 -10 -20 -10 -11 0 -20 -4 -20 -10 0 -5 -7 -10 -15 -10 -9 0
-25 -9 -37 -20 -12 -11 -28 -20 -35 -20 -7 0 -13 -4 -13 -10 0 -5 -7 -10 -16
-10 -8 0 -22 -7 -31 -15 -29 -30 -7 -24 45 10 28 19 56 35 61 35 5 0 11 3 13
8 4 10 87 52 104 52 8 0 14 5 14 10 0 6 9 10 19 10 11 0 23 5 26 10 3 6 15 10
26 10 19 0 28 4 76 28 13 7 30 12 38 12 8 0 15 5 15 10 0 6 10 10 23 10 13 0
27 4 33 9 5 5 23 11 39 14 l30 4 -32 2 c-17 0 -35 -3 -38 -9z"/>
<path d="M5638 7083 c6 -2 18 -2 25 0 6 3 1 5 -13 5 -14 0 -19 -2 -12 -5z"/>
<path d="M5840 7060 c8 -5 20 -10 25 -10 6 0 3 5 -5 10 -8 5 -19 10 -25 10 -5
0 -3 -5 5 -10z"/>
<path d="M5768 7043 c7 -3 16 -2 19 1 4 3 -2 6 -13 5 -11 0 -14 -3 -6 -6z"/>
<path d="M5910 7030 c19 -11 40 -19 45 -19 6 0 -6 8 -25 19 -19 11 -39 19 -45
19 -5 0 6 -8 25 -19z"/>
<path d="M5828 7023 c7 -3 16 -2 19 1 4 3 -2 6 -13 5 -11 0 -14 -3 -6 -6z"/>
<path d="M5888 7003 c7 -3 16 -2 19 1 4 3 -2 6 -13 5 -11 0 -14 -3 -6 -6z"/>
<path d="M6103 6933 c140 -81 265 -173 363 -265 70 -67 114 -95 60 -39 -19 19
-23 30 -15 33 10 3 10 6 1 12 -7 4 -12 2 -12 -5 0 -8 -7 -5 -20 6 -11 10 -17
22 -13 28 3 6 1 7 -6 3 -7 -5 -33 10 -64 37 -29 24 -83 66 -122 94 -72 51
-264 163 -280 163 -5 0 44 -30 108 -67z"/>
<path d="M6582 6826 c7 -8 16 -12 21 -9 11 7 -2 23 -19 23 -12 0 -12 -2 -2
-14z"/>
<path d="M4022 6815 c-16 -19 -3 -19 22 0 14 11 16 15 5 15 -8 -1 -20 -7 -27
-15z"/>
<path d="M3916 6729 c-21 -21 -43 -39 -48 -39 -12 0 -258 -249 -258 -262 0 -5
-13 -23 -30 -38 -16 -15 -30 -33 -30 -40 0 -7 -13 -25 -30 -40 -16 -15 -30
-35 -30 -44 0 -9 -4 -16 -10 -16 -5 0 -10 -8 -10 -18 0 -10 -9 -24 -20 -32
-11 -8 -20 -22 -20 -32 0 -10 -3 -18 -8 -18 -4 0 -15 -17 -25 -37 -9 -21 -28
-57 -42 -81 -14 -23 -25 -51 -25 -62 0 -11 -4 -20 -10 -20 -5 0 -10 -11 -10
-24 0 -14 -4 -28 -10 -31 -5 -3 -10 -15 -10 -26 0 -10 -4 -19 -10 -19 -5 0
-10 -13 -10 -30 0 -16 -4 -30 -10 -30 -5 0 -10 -13 -10 -30 0 -16 -4 -30 -10
-30 -5 0 -10 -18 -10 -40 0 -22 -4 -40 -10 -40 -5 0 -9 -21 -8 -47 1 -48 1
-48 5 -8 3 22 9 44 14 50 5 5 9 19 9 31 0 13 5 26 10 29 6 3 10 19 10 35 0 16
5 32 10 35 6 3 10 15 10 26 0 10 4 27 9 37 10 19 36 84 60 145 4 12 18 42 31
67 13 25 28 55 34 67 6 13 14 23 19 23 4 0 7 5 7 11 0 5 18 37 40 69 22 32 40
64 40 69 0 6 4 11 8 11 4 0 15 12 24 28 9 15 28 41 42 57 14 17 26 33 26 38 0
11 217 226 270 267 62 48 93 80 78 79 -7 0 -30 -18 -52 -40z"/>
<path d="M7271 6504 c0 -11 3 -14 6 -6 3 7 2 16 -1 19 -3 4 -6 -2 -5 -13z"/>
<path d="M5858 6489 c18 -12 35 -19 38 -16 3 3 -8 13 -25 21 -43 23 -52 19
-13 -5z"/>
<path d="M7331 6404 c0 -11 3 -14 6 -6 3 7 2 16 -1 19 -3 4 -6 -2 -5 -13z"/>
<path d="M6026 6335 c-4 -13 -2 -14 14 -5 23 13 26 20 6 20 -8 0 -16 -7 -20
-15z"/>
<path d="M7391 6284 c0 -11 3 -14 6 -6 3 7 2 16 -1 19 -3 4 -6 -2 -5 -13z"/>
<path d="M7411 6244 c0 -11 3 -14 6 -6 3 7 2 16 -1 19 -3 4 -6 -2 -5 -13z"/>
<path d="M5636 6205 c-11 -8 -15 -15 -9 -15 6 0 16 7 23 15 16 19 11 19 -14 0z"/>
<path d="M7471 6104 c0 -11 3 -14 6 -6 3 7 2 16 -1 19 -3 4 -6 -2 -5 -13z"/>
<path d="M7491 6054 c0 -11 3 -14 6 -6 3 7 2 16 -1 19 -3 4 -6 -2 -5 -13z"/>
<path d="M7512 5995 c0 -16 2 -22 5 -12 2 9 2 23 0 30 -3 6 -5 -1 -5 -18z"/>
<path d="M6411 5944 c0 -11 3 -14 6 -6 3 7 2 16 -1 19 -3 4 -6 -2 -5 -13z"/>
<path d="M7532 5930 c0 -14 2 -19 5 -12 2 6 2 18 0 25 -3 6 -5 1 -5 -13z"/>
<path d="M6431 5884 c0 -11 3 -14 6 -6 3 7 2 16 -1 19 -3 4 -6 -2 -5 -13z"/>
<path d="M7552 5860 c0 -19 2 -27 5 -17 2 9 2 25 0 35 -3 9 -5 1 -5 -18z"/>
<path d="M6451 5824 c0 -11 3 -14 6 -6 3 7 2 16 -1 19 -3 4 -6 -2 -5 -13z"/>
<path d="M7572 5780 c0 -19 2 -27 5 -17 2 9 2 25 0 35 -3 9 -5 1 -5 -18z"/>
<path d="M6472 5755 c0 -16 2 -22 5 -12 2 9 2 23 0 30 -3 6 -5 -1 -5 -18z"/>
<path d="M7592 5688 c-1 -20 3 -40 8 -43 6 -3 10 -35 10 -70 0 -35 5 -67 10
-70 6 -4 10 -113 10 -295 0 -182 -4 -291 -10 -295 -5 -3 -10 -39 -10 -80 0
-41 -4 -77 -10 -80 -5 -3 -10 -24 -10 -46 0 -21 -4 -39 -10 -39 -5 0 -10 -20
-10 -44 0 -25 -4 -48 -10 -51 -5 -3 -10 -19 -10 -36 0 -16 -4 -29 -10 -29 -5
0 -10 -18 -10 -40 0 -22 -4 -40 -10 -40 -5 0 -10 -13 -10 -30 0 -16 -4 -30
-10 -30 -5 0 -10 -11 -10 -24 0 -14 -4 -28 -10 -31 -5 -3 -10 -15 -10 -26 0
-10 -4 -19 -10 -19 -5 0 -10 -13 -10 -30 0 -16 -4 -30 -10 -30 -5 0 -10 -9
-10 -20 0 -11 -4 -20 -10 -20 -5 0 -10 -9 -10 -20 0 -11 -4 -20 -10 -20 -5 0
-10 -9 -10 -20 0 -11 -4 -20 -10 -20 -5 0 -10 -9 -10 -20 0 -11 -4 -20 -10
-20 -5 0 -10 -9 -10 -20 0 -11 -4 -20 -10 -20 -5 0 -10 -9 -10 -19 0 -11 -5
-21 -11 -23 -7 -2 -10 -10 -7 -18 3 -9 10 -3 19 18 7 18 17 32 21 32 5 0 8 9
8 20 0 11 5 20 10 20 6 0 10 9 10 20 0 11 3 20 8 20 8 0 32 49 32 67 0 7 5 13
10 13 6 0 10 6 10 14 0 8 10 34 21 58 12 23 25 52 29 63 4 11 12 31 17 45 21
52 33 97 33 123 0 14 5 29 10 32 6 3 10 19 10 35 0 16 4 31 9 34 5 3 11 23 14
43 3 21 11 63 17 93 27 131 32 212 36 494 3 198 1 303 -6 310 -5 5 -10 37 -10
71 0 34 -4 65 -9 71 -5 5 -11 25 -14 44 l-4 35 -1 -37z"/>
<path d="M6492 5643 c-1 -39 3 -75 8 -78 6 -3 10 -24 10 -45 0 -21 -4 -42 -10
-45 -6 -4 -9 -47 -8 -103 l1 -97 9 90 c11 117 11 193 0 280 l-9 70 -1 -72z"/>
<path d="M3190 5490 c0 -33 -4 -60 -10 -60 -6 0 -9 -86 -8 -242 l2 -243 7 225
c4 124 11 260 16 303 4 42 5 77 1 77 -5 0 -8 -27 -8 -60z"/>
<path d="M4561 5344 c0 -11 3 -14 6 -6 3 7 2 16 -1 19 -3 4 -6 -2 -5 -13z"/>
<path d="M4496 5298 c3 -4 9 -8 15 -8 5 0 9 4 9 8 0 5 -7 9 -15 9 -8 0 -12 -4
-9 -9z"/>
<path d="M3123 5205 c0 -44 2 -61 4 -37 2 23 2 59 0 80 -2 20 -4 1 -4 -43z"/>
<path d="M6470 5230 c0 -22 -4 -40 -10 -40 -5 0 -10 -13 -10 -30 0 -16 -4 -30
-10 -30 -5 0 -10 -13 -10 -30 0 -16 -4 -30 -10 -30 -5 0 -10 -13 -10 -30 0
-16 -4 -30 -10 -30 -5 0 -10 -9 -10 -20 0 -11 -4 -20 -9 -20 -5 0 -11 -8 -14
-17 -8 -27 -40 -76 -59 -94 -10 -9 -18 -22 -18 -29 0 -6 -13 -25 -30 -40 -16
-15 -30 -33 -30 -38 0 -14 -128 -142 -142 -142 -5 0 -23 -13 -38 -30 -15 -16
-34 -30 -42 -30 -7 0 -20 -9 -28 -20 -8 -11 -20 -20 -28 -20 -7 0 -22 -9 -34
-20 -12 -11 -30 -20 -39 -20 -10 0 -21 -4 -24 -10 -3 -5 -15 -10 -26 -10 -10
0 -19 -4 -19 -10 0 -5 -9 -10 -20 -10 -11 0 -20 -4 -20 -10 0 -5 -13 -10 -30
-10 -16 0 -30 -4 -30 -10 0 -5 -13 -10 -30 -10 -16 0 -30 -4 -30 -10 0 -5 -18
-10 -40 -10 -22 0 -40 -4 -40 -10 0 -6 -28 -10 -64 -10 -36 0 -68 -4 -71 -10
-4 -6 -143 -10 -384 -10 -280 0 -380 -3 -389 -12 -9 -9 -11 -135 -10 -518 l3
-505 2 499 c2 343 7 503 14 512 9 11 93 14 393 18 382 4 493 10 511 27 5 5 20
9 34 9 25 0 83 16 113 31 10 5 27 9 38 9 11 0 20 5 20 10 0 6 7 10 15 10 8 0
23 4 33 9 118 59 148 75 152 80 3 4 21 18 40 31 61 43 73 53 140 120 73 73
130 137 146 166 6 10 17 30 25 43 8 14 22 34 32 45 9 11 17 26 17 33 0 7 5 13
10 13 6 0 10 9 10 19 0 11 4 21 8 23 22 9 90 268 70 268 -4 0 -8 -18 -8 -40z"/>
<path d="M4396 5118 c3 -5 10 -6 15 -3 13 9 11 12 -6 12 -8 0 -12 -4 -9 -9z"/>
<path d="M4320 5105 c-7 -9 -8 -15 -2 -15 5 0 12 7 16 15 3 8 4 15 2 15 -2 0
-9 -7 -16 -15z"/>
<path d="M3132 5015 c0 -16 2 -22 5 -12 2 9 2 23 0 30 -3 6 -5 -1 -5 -18z"/>
<path d="M3142 4935 c0 -16 2 -22 5 -12 2 9 2 23 0 30 -3 6 -5 -1 -5 -18z"/>
<path d="M3193 4880 c0 -30 2 -43 4 -27 2 15 2 39 0 55 -2 15 -4 2 -4 -28z"/>
<path d="M3152 4870 c0 -14 2 -19 5 -12 2 6 2 18 0 25 -3 6 -5 1 -5 -13z"/>
<path d="M3162 4810 c0 -14 2 -19 5 -12 2 6 2 18 0 25 -3 6 -5 1 -5 -13z"/>
<path d="M3213 4765 c0 -22 2 -30 4 -17 2 12 2 30 0 40 -3 9 -5 -1 -4 -23z"/>
<path d="M3172 4765 c0 -21 25 -107 27 -90 0 6 -6 33 -13 60 -8 28 -14 41 -14
30z"/>
<path d="M3232 4680 c0 -19 2 -27 5 -17 2 9 2 25 0 35 -3 9 -5 1 -5 -18z"/>
<path d="M3201 4650 c0 -8 4 -24 9 -35 5 -13 9 -14 9 -5 0 8 -4 24 -9 35 -5
13 -9 14 -9 5z"/>
<path d="M3252 4610 c0 -14 2 -19 5 -12 2 6 2 18 0 25 -3 6 -5 1 -5 -13z"/>
<path d="M3271 4544 c0 -11 3 -14 6 -6 3 7 2 16 -1 19 -3 4 -6 -2 -5 -13z"/>
<path d="M3292 4490 c0 -14 2 -19 5 -12 2 6 2 18 0 25 -3 6 -5 1 -5 -13z"/>
<path d="M3311 4444 c0 -11 3 -14 6 -6 3 7 2 16 -1 19 -3 4 -6 -2 -5 -13z"/>
<path d="M3331 4394 c0 -11 3 -14 6 -6 3 7 2 16 -1 19 -3 4 -6 -2 -5 -13z"/>
<path d="M3351 4344 c0 -11 3 -14 6 -6 3 7 2 16 -1 19 -3 4 -6 -2 -5 -13z"/>
<path d="M3134 4293 c4 -8 2 -13 -5 -13 -7 0 -4 -7 7 -15 23 -17 34 -19 34 -5
0 6 -5 9 -12 8 -7 -2 -12 2 -13 9 0 6 -4 15 -9 20 -5 5 -6 3 -2 -4z"/>
<path d="M3298 4253 c7 -3 16 -2 19 1 4 3 -2 6 -13 5 -11 0 -14 -3 -6 -6z"/>
<path d="M2955 4180 c-4 -6 -1 -9 7 -8 7 2 12 -3 11 -9 -2 -7 2 -13 7 -13 14
0 12 16 -4 29 -10 8 -16 9 -21 1z"/>
<path d="M7283 3915 c-7 -8 -13 -20 -13 -27 0 -8 -9 -20 -20 -28 -11 -8 -20
-22 -20 -32 0 -10 -4 -18 -10 -18 -5 0 -10 -8 -10 -17 0 -10 15 5 35 34 19 29
35 57 35 63 0 5 4 10 9 10 5 0 11 7 15 15 7 19 -5 19 -21 0z"/>
<path d="M7185 3757 c-32 -39 -37 -48 -33 -53 3 -2 17 11 32 31 24 31 25 52 1
22z"/>
<path d="M7113 3665 c-13 -13 -23 -29 -23 -35 0 -5 -27 -37 -60 -71 -33 -33
-60 -65 -60 -71 0 -12 -149 -158 -161 -158 -11 0 -103 -90 -97 -95 2 -2 19 11
38 28 19 18 51 44 70 57 41 29 119 106 157 158 16 20 54 63 86 95 31 32 57 65
57 73 0 8 4 14 9 14 5 0 11 7 15 15 8 22 -6 17 -31 -10z"/>
<path d="M4058 3553 c6 -2 18 -2 25 0 6 3 1 5 -13 5 -14 0 -19 -2 -12 -5z"/>
<path d="M6640 3190 c-19 -21 -42 -39 -50 -40 -9 0 -22 -9 -30 -20 -8 -11 -21
-20 -30 -20 -9 0 -22 -9 -30 -20 -8 -11 -22 -20 -32 -20 -10 0 -18 -4 -18 -10
0 -5 -7 -10 -16 -10 -8 0 -22 -7 -30 -15 -14 -13 -14 -15 0 -15 9 0 16 3 16 8
0 4 17 15 39 24 21 9 45 23 53 30 7 7 23 18 33 24 56 31 72 42 113 82 25 23
39 42 31 42 -8 -1 -30 -19 -49 -40z"/>
<path d="M6350 3000 c0 -5 -9 -10 -20 -10 -11 0 -20 -4 -20 -10 0 -5 -9 -10
-20 -10 -11 0 -20 -4 -20 -10 0 -5 -9 -10 -20 -10 -11 0 -20 -4 -20 -10 0 -5
-9 -10 -20 -10 -11 0 -20 -4 -20 -10 0 -5 -9 -10 -20 -10 -11 0 -20 -4 -20
-10 0 -5 -13 -10 -30 -10 -16 0 -30 -4 -30 -10 0 -5 -9 -10 -20 -10 -11 0 -20
-4 -20 -10 0 -5 -9 -10 -20 -10 -11 0 -20 -4 -20 -10 0 -5 -13 -10 -30 -10
-16 0 -30 -4 -30 -10 0 -5 -13 -10 -29 -10 -17 0 -33 -4 -36 -10 -3 -5 -22
-10 -41 -10 -19 0 -34 -4 -34 -10 0 -5 -18 -10 -40 -10 -22 0 -40 -4 -40 -10
0 -5 -18 -10 -39 -10 -22 0 -42 -4 -45 -8 -5 -9 52 -1 139 18 28 6 65 14 83
17 18 3 35 9 38 14 3 5 16 9 30 9 13 0 24 5 24 10 0 6 9 10 20 10 11 0 28 4
38 9 9 5 35 17 57 26 22 10 56 24 75 32 70 30 165 78 168 85 2 5 9 8 15 8 7 0
21 7 31 15 17 13 18 15 3 15 -9 0 -17 -4 -17 -10z"/>
<path d="M4148 2883 c7 -3 16 -2 19 1 4 3 -2 6 -13 5 -11 0 -14 -3 -6 -6z"/>
<path d="M4188 2863 c7 -3 16 -2 19 1 4 3 -2 6 -13 5 -11 0 -14 -3 -6 -6z"/>
<path d="M4238 2843 c6 -2 18 -2 25 0 6 3 1 5 -13 5 -14 0 -19 -2 -12 -5z"/>
<path d="M4298 2823 c6 -2 18 -2 25 0 6 3 1 5 -13 5 -14 0 -19 -2 -12 -5z"/>
<path d="M4358 2803 c6 -2 18 -2 25 0 6 3 1 5 -13 5 -14 0 -19 -2 -12 -5z"/>
<path d="M4433 2783 c9 -2 23 -2 30 0 6 3 -1 5 -18 5 -16 0 -22 -2 -12 -5z"/>
<path d="M4498 2763 c6 -2 18 -2 25 0 6 3 1 5 -13 5 -14 0 -19 -2 -12 -5z"/>
<path d="M4573 2743 c9 -2 23 -2 30 0 6 3 -1 5 -18 5 -16 0 -22 -2 -12 -5z"/>
<path d="M4663 2723 c15 -2 37 -2 50 0 12 2 0 4 -28 4 -27 0 -38 -2 -22 -4z"/>
<path d="M5530 2720 c0 -6 -33 -10 -78 -10 -43 0 -82 -4 -88 -10 -5 -5 -100
-11 -219 -13 l-210 -3 215 2 c239 3 355 10 385 24 11 5 38 11 60 13 35 3 33 4
-12 5 -30 1 -53 -2 -53 -8z"/>
<path d="M4793 2703 c20 -2 54 -2 75 0 20 2 3 4 -38 4 -41 0 -58 -2 -37 -4z"/>
<path d="M2476 2355 c-14 -22 -16 -120 -16 -1015 l0 -990 205 0 205 0 0 360 0
360 273 0 c388 0 513 23 662 120 86 56 147 126 195 225 55 111 73 189 73 315
0 124 -17 203 -70 310 -85 175 -282 301 -473 302 -41 0 -79 3 -85 8 -33 25
-125 30 -528 30 l-425 0 -16 -25z m952 -349 c127 -32 180 -77 236 -199 37 -79
43 -114 27 -145 -5 -9 -24 -48 -41 -86 -39 -83 -38 -82 -119 -123 -46 -24 -77
-33 -113 -33 -30 0 -65 -8 -90 -21 -30 -15 -72 -23 -162 -30 -165 -12 -159
-12 -200 16 -20 14 -50 25 -66 25 l-30 0 0 311 0 312 248 -6 c176 -4 265 -10
310 -21z"/>
<path d="M2910 1973 c0 -12 3 -14 8 -7 4 7 16 14 27 17 15 4 14 5 -7 6 -21 1
-28 -4 -28 -16z"/>
<path d="M3103 1983 c37 -2 96 -2 130 0 34 2 4 3 -68 3 -71 0 -99 -1 -62 -3z"/>
<path d="M3448 1963 c7 -3 16 -2 19 1 4 3 -2 6 -13 5 -11 0 -14 -3 -6 -6z"/>
<path d="M3508 1943 c7 -3 16 -2 19 1 4 3 -2 6 -13 5 -11 0 -14 -3 -6 -6z"/>
<path d="M2910 1700 c0 -136 -4 -206 -12 -219 -9 -15 -8 -22 5 -36 16 -15 17
-1 17 219 0 130 -2 236 -5 236 -3 0 -5 -90 -5 -200z"/>
<path d="M4866 2347 c-15 -19 -26 -41 -26 -50 0 -9 -4 -19 -10 -22 -5 -3 -10
-17 -10 -31 0 -13 -4 -32 -9 -42 -5 -9 -14 -30 -21 -47 -7 -16 -16 -38 -21
-47 -5 -10 -9 -25 -9 -33 0 -8 -4 -23 -9 -33 -12 -23 -51 -111 -63 -142 -6
-14 -14 -33 -19 -42 -5 -10 -9 -25 -9 -33 0 -8 -4 -23 -9 -33 -5 -9 -14 -30
-21 -47 -7 -16 -16 -38 -21 -47 -5 -10 -9 -27 -9 -37 0 -11 -4 -23 -10 -26 -5
-3 -10 -14 -10 -25 0 -10 -13 -44 -30 -75 -16 -31 -30 -65 -30 -75 0 -11 -4
-22 -10 -25 -5 -3 -10 -15 -10 -25 0 -11 -8 -34 -18 -52 -28 -51 -62 -139 -62
-159 0 -11 -4 -19 -10 -19 -5 0 -10 -9 -10 -19 0 -11 -4 -23 -10 -26 -5 -3
-10 -17 -10 -30 0 -13 -4 -27 -10 -30 -5 -3 -10 -15 -10 -26 0 -10 -4 -28 -10
-39 -5 -11 -14 -29 -20 -40 -5 -11 -10 -27 -10 -35 0 -8 -4 -15 -10 -15 -5 0
-10 -7 -10 -15 0 -8 -4 -24 -10 -35 -5 -11 -14 -29 -20 -40 -5 -11 -10 -31
-10 -45 0 -14 -4 -25 -10 -25 -5 0 -10 -7 -10 -15 0 -8 -4 -24 -10 -35 -5 -11
-14 -29 -20 -40 -5 -11 -10 -31 -10 -45 0 -14 -4 -33 -9 -43 -10 -20 -50 -108
-62 -137 -4 -11 -9 -37 -11 -57 l-4 -38 197 0 197 0 16 43 c9 23 47 128 84
232 l69 190 401 3 402 2 15 -37 c9 -20 13 -43 10 -50 -2 -8 -1 -12 3 -9 5 3
38 -79 74 -182 l65 -187 222 -3 c177 -2 222 0 218 10 -53 136 -713 1845 -759
1966 l-19 52 -209 0 -209 0 -25 -33z m262 -512 c22 -61 53 -150 71 -200 101
-294 129 -368 144 -385 10 -12 17 -37 17 -59 l0 -38 -182 -2 c-101 -1 -202 -7
-224 -12 -34 -9 -48 -8 -73 6 -18 9 -40 15 -50 13 -10 -2 -20 -1 -22 2 -3 5
274 791 278 786 1 -1 20 -51 41 -111z"/>
<path d="M5090 1850 c0 -11 -4 -20 -10 -20 -5 0 -9 -12 -9 -27 1 -23 2 -24 6
-6 2 12 11 27 19 33 16 14 19 40 4 40 -5 0 -10 -9 -10 -20z"/>
<path d="M5051 1734 c0 -11 3 -14 6 -6 3 7 2 16 -1 19 -3 4 -6 -2 -5 -13z"/>
<path d="M5032 1683 c-1 -18 -6 -33 -12 -33 -5 0 -10 -9 -10 -20 0 -11 -4 -20
-10 -20 -5 0 -10 -13 -10 -30 0 -16 -4 -30 -10 -30 -5 0 -10 -13 -10 -30 0
-16 -4 -30 -10 -30 -5 0 -10 -13 -10 -30 0 -16 -4 -30 -10 -30 -5 0 -10 -13
-10 -30 0 -16 -4 -30 -10 -30 -5 0 -10 -13 -10 -29 0 -17 -4 -33 -10 -36 -5
-3 -10 -17 -10 -31 0 -13 -4 -24 -10 -24 -5 0 -10 -9 -10 -20 0 -11 -4 -20
-10 -20 -5 0 -10 -9 -10 -20 0 -11 5 -20 10 -20 6 0 9 3 8 8 -3 9 13 56 21 62
13 11 31 51 31 69 0 11 5 23 10 26 6 3 10 19 10 35 0 16 5 32 10 35 6 3 10 21
10 40 0 19 5 37 10 40 6 3 10 15 10 26 0 19 4 28 28 76 7 13 12 29 12 37 0 8
5 16 11 18 6 2 9 19 6 38 l-4 35 -1 -32z"/>
<path d="M5912 2364 c-11 -12 -11 -22 2 -61 9 -25 13 -49 11 -53 -3 -5 -1 -10
4 -12 8 -2 149 -372 198 -518 16 -49 88 -239 105 -280 23 -54 28 -68 52 -140
26 -79 84 -239 136 -380 18 -47 35 -96 40 -110 12 -40 80 -223 88 -240 4 -8
23 -61 42 -117 l35 -103 240 0 241 0 151 428 c245 691 471 1328 519 1460 24
67 44 127 44 132 0 6 -73 10 -184 10 l-183 0 -37 -33 c-20 -19 -36 -43 -36
-55 0 -12 -4 -30 -9 -40 -9 -18 -28 -63 -41 -97 -9 -22 -21 -58 -39 -120 -7
-22 -21 -59 -32 -82 -10 -24 -19 -52 -19 -62 0 -11 -4 -23 -10 -26 -5 -3 -10
-17 -10 -30 0 -23 -5 -39 -36 -110 -22 -53 -44 -120 -44 -138 0 -9 -4 -25 -9
-35 -29 -56 -71 -181 -71 -210 0 -11 -4 -24 -10 -27 -5 -3 -10 -15 -10 -26 0
-10 -4 -27 -9 -37 -31 -58 -53 -121 -67 -192 -3 -14 -9 -34 -14 -45 -5 -11
-11 -36 -14 -55 -12 -79 -19 -100 -37 -105 -10 -4 -22 -17 -25 -31 -3 -13 -9
-24 -13 -24 -3 0 -33 80 -65 178 -88 266 -436 1289 -458 1350 l-19 52 -197 0
c-163 -1 -199 -3 -210 -16z"/>
<path d="M7851 2323 c0 -18 -5 -33 -11 -33 -5 0 -10 -9 -10 -20 0 -11 -4 -20
-10 -20 -5 0 -10 -13 -10 -30 0 -16 -4 -30 -10 -30 -5 0 -10 -9 -10 -20 0 -11
-5 -30 -12 -43 -24 -48 -28 -57 -28 -77 0 -11 -4 -20 -10 -20 -5 0 -10 -13
-10 -30 0 -16 -4 -30 -10 -30 -5 0 -10 -13 -10 -30 0 -16 -4 -30 -10 -30 -5 0
-10 -9 -10 -19 0 -11 -4 -23 -10 -26 -5 -3 -10 -17 -10 -31 0 -13 -4 -24 -10
-24 -5 0 -10 -13 -10 -30 0 -16 -4 -30 -10 -30 -5 0 -10 -13 -10 -30 0 -16 -4
-30 -10 -30 -5 0 -10 -13 -10 -30 0 -16 -4 -30 -10 -30 -5 0 -10 -9 -10 -19 0
-11 -4 -23 -10 -26 -5 -3 -10 -17 -10 -31 0 -13 -4 -24 -10 -24 -5 0 -10 -13
-10 -30 0 -16 -4 -30 -10 -30 -5 0 -10 -12 -9 -27 0 -16 3 -21 6 -13 2 8 9 25
14 38 19 46 27 68 39 102 14 40 23 64 39 103 21 51 28 72 50 142 12 39 27 81
33 95 19 45 26 64 39 105 15 49 21 67 48 127 12 26 21 52 21 58 0 6 9 30 21
54 11 25 19 57 16 73 -4 27 -4 27 -6 -4z"/>
<path d="M6370 2325 c0 -8 4 -15 10 -15 5 0 7 7 4 15 -4 8 -8 15 -10 15 -2 0
-4 -7 -4 -15z"/>
<path d="M5371 2284 c0 -11 3 -14 6 -6 3 7 2 16 -1 19 -3 4 -6 -2 -5 -13z"/>
<path d="M6391 2278 c0 -15 4 -30 9 -33 6 -3 11 -18 11 -33 1 -19 3 -22 6 -8
3 10 0 28 -5 40 -6 11 -13 30 -15 41 -4 15 -5 13 -6 -7z"/>
<path d="M6432 2150 c0 -14 2 -19 5 -12 2 6 2 18 0 25 -3 6 -5 1 -5 -13z"/>
<path d="M6451 2093 c-1 -12 4 -25 9 -28 6 -3 11 -18 11 -33 1 -19 3 -22 6 -8
3 10 0 28 -5 40 -6 11 -13 28 -15 36 -4 9 -6 7 -6 -7z"/>
<path d="M5451 2074 c0 -11 3 -14 6 -6 3 7 2 16 -1 19 -3 4 -6 -2 -5 -13z"/>
<path d="M4031 2044 c0 -11 3 -14 6 -6 3 7 2 16 -1 19 -3 4 -6 -2 -5 -13z"/>
<path d="M5471 2024 c0 -11 3 -14 6 -6 3 7 2 16 -1 19 -3 4 -6 -2 -5 -13z"/>
<path d="M4051 2004 c0 -11 3 -14 6 -6 3 7 2 16 -1 19 -3 4 -6 -2 -5 -13z"/>
<path d="M6490 1975 c0 -14 4 -25 9 -25 4 0 6 11 3 25 -2 14 -6 25 -8 25 -2 0
-4 -11 -4 -25z"/>
<path d="M4072 1950 c0 -14 2 -19 5 -12 2 6 2 18 0 25 -3 6 -5 1 -5 -13z"/>
<path d="M5511 1924 c0 -11 3 -14 6 -6 3 7 2 16 -1 19 -3 4 -6 -2 -5 -13z"/>
<path d="M6512 1915 c0 -16 2 -22 5 -12 2 9 2 23 0 30 -3 6 -5 -1 -5 -18z"/>
<path d="M4092 1880 c0 -19 2 -27 5 -17 2 9 2 25 0 35 -3 9 -5 1 -5 -18z"/>
<path d="M5531 1864 c0 -11 3 -14 6 -6 3 7 2 16 -1 19 -3 4 -6 -2 -5 -13z"/>
<path d="M6532 1855 c0 -16 2 -22 5 -12 2 9 2 23 0 30 -3 6 -5 -1 -5 -18z"/>
<path d="M5551 1824 c0 -11 3 -14 6 -6 3 7 2 16 -1 19 -3 4 -6 -2 -5 -13z"/>
<path d="M4112 1718 c-1 -59 -6 -110 -12 -113 -5 -3 -9 -25 -9 -48 2 -33 3
-35 6 -12 2 17 8 39 14 50 5 11 8 67 6 125 l-3 105 -2 -107z"/>
<path d="M6552 1790 c0 -14 2 -19 5 -12 2 6 2 18 0 25 -3 6 -5 1 -5 -13z"/>
<path d="M5571 1764 c0 -11 3 -14 6 -6 3 7 2 16 -1 19 -3 4 -6 -2 -5 -13z"/>
<path d="M6572 1730 c0 -14 2 -19 5 -12 2 6 2 18 0 25 -3 6 -5 1 -5 -13z"/>
<path d="M5592 1710 c0 -14 2 -19 5 -12 2 6 2 18 0 25 -3 6 -5 1 -5 -13z"/>
<path d="M6592 1670 c0 -14 2 -19 5 -12 2 6 2 18 0 25 -3 6 -5 1 -5 -13z"/>
<path d="M6612 1610 c0 -14 2 -19 5 -12 2 6 2 18 0 25 -3 6 -5 1 -5 -13z"/>
<path d="M5631 1604 c0 -11 3 -14 6 -6 3 7 2 16 -1 19 -3 4 -6 -2 -5 -13z"/>
<path d="M5651 1564 c0 -11 3 -14 6 -6 3 7 2 16 -1 19 -3 4 -6 -2 -5 -13z"/>
<path d="M6632 1550 c0 -14 2 -19 5 -12 2 6 2 18 0 25 -3 6 -5 1 -5 -13z"/>
<path d="M5671 1504 c0 -11 3 -14 6 -6 3 7 2 16 -1 19 -3 4 -6 -2 -5 -13z"/>
<path d="M6650 1501 c0 -11 4 -22 9 -25 4 -3 6 6 3 19 -5 30 -12 33 -12 6z"/>
<path d="M4074 1495 c-3 -8 -4 -20 -2 -27 3 -7 7 -1 10 15 6 29 1 36 -8 12z"/>
<path d="M5691 1464 c0 -11 3 -14 6 -6 3 7 2 16 -1 19 -3 4 -6 -2 -5 -13z"/>
<path d="M6671 1444 c0 -11 3 -14 6 -6 3 7 2 16 -1 19 -3 4 -6 -2 -5 -13z"/>
<path d="M4050 1430 c0 -11 -4 -20 -10 -20 -5 0 -10 -9 -10 -19 0 -11 -5 -21
-11 -23 -7 -2 -10 -10 -8 -17 4 -11 18 11 57 92 2 4 -2 7 -7 7 -6 0 -11 -9
-11 -20z"/>
<path d="M5712 1410 c0 -14 2 -19 5 -12 2 6 2 18 0 25 -3 6 -5 1 -5 -13z"/>
<path d="M6692 1385 c0 -16 2 -22 5 -12 2 9 2 23 0 30 -3 6 -5 -1 -5 -18z"/>
<path d="M7510 1386 c0 -14 -4 -28 -10 -31 -5 -3 -10 -17 -10 -30 0 -13 -4
-27 -10 -30 -5 -3 -10 -17 -10 -30 0 -13 -4 -27 -10 -30 -5 -3 -10 -15 -10
-26 0 -10 -4 -28 -10 -39 -5 -11 -14 -29 -20 -40 -5 -11 -10 -29 -10 -40 0
-11 -4 -20 -10 -20 -5 0 -10 -13 -10 -30 0 -16 -4 -30 -10 -30 -5 0 -10 -12
-9 -27 0 -16 3 -21 6 -13 5 18 16 46 31 80 6 14 16 43 23 65 6 22 15 49 20 60
4 11 13 38 20 60 7 22 17 44 21 50 4 5 8 19 8 31 0 13 4 25 9 28 12 8 20 66 9
66 -4 0 -8 -11 -8 -24z"/>
<path d="M5730 1355 c0 -14 4 -25 9 -25 4 0 6 11 3 25 -2 14 -6 25 -8 25 -2 0
-4 -11 -4 -25z"/>
<path d="M6712 1310 c0 -14 2 -19 5 -12 2 6 2 18 0 25 -3 6 -5 1 -5 -13z"/>
<path d="M5751 1304 c0 -11 3 -14 6 -6 3 7 2 16 -1 19 -3 4 -6 -2 -5 -13z"/>
<path d="M3971 1294 c0 -11 3 -14 6 -6 3 7 2 16 -1 19 -3 4 -6 -2 -5 -13z"/>
<path d="M5770 1255 c0 -14 4 -25 9 -25 4 0 6 11 3 25 -2 14 -6 25 -8 25 -2 0
-4 -11 -4 -25z"/>
<path d="M6732 1250 c0 -14 2 -19 5 -12 2 6 2 18 0 25 -3 6 -5 1 -5 -13z"/>
<path d="M5791 1204 c0 -11 3 -14 6 -6 3 7 2 16 -1 19 -3 4 -6 -2 -5 -13z"/>
<path d="M6751 1204 c0 -11 3 -14 6 -6 3 7 2 16 -1 19 -3 4 -6 -2 -5 -13z"/>
<path d="M3836 1165 c-16 -14 -25 -25 -20 -25 5 0 22 11 38 25 16 14 25 25 20
25 -5 0 -22 -11 -38 -25z"/>
<path d="M5812 1150 c0 -14 2 -19 5 -12 2 6 2 18 0 25 -3 6 -5 1 -5 -13z"/>
<path d="M6771 1144 c0 -11 3 -14 6 -6 3 7 2 16 -1 19 -3 4 -6 -2 -5 -13z"/>
<path d="M3765 1120 c-3 -5 -17 -10 -31 -10 -13 0 -24 -4 -24 -10 0 -5 -9 -10
-19 -10 -11 0 -23 -4 -26 -10 -3 -5 -21 -10 -39 -10 -17 0 -36 -4 -42 -10 -5
-5 -47 -11 -94 -13 l-85 -3 90 2 c100 2 162 12 171 25 3 5 13 9 23 9 10 0 40
11 67 25 27 14 41 25 32 25 -9 0 -20 -4 -23 -10z"/>
<path d="M5831 1094 c0 -11 3 -14 6 -6 3 7 2 16 -1 19 -3 4 -6 -2 -5 -13z"/>
<path d="M6792 1075 c0 -16 2 -22 5 -12 2 9 2 23 0 30 -3 6 -5 -1 -5 -18z"/>
<path d="M5851 1044 c0 -11 3 -14 6 -6 3 7 2 16 -1 19 -3 4 -6 -2 -5 -13z"/>
<path d="M2917 1026 c-15 -13 -27 -32 -26 -42 0 -17 1 -16 9 3 5 12 21 28 36
36 15 8 23 17 17 20 -5 3 -21 -5 -36 -17z"/>
<path d="M3073 1023 c37 -2 97 -2 135 0 37 2 6 3 -68 3 -74 0 -105 -1 -67 -3z"/>
<path d="M5871 994 c0 -11 3 -14 6 -6 3 7 2 16 -1 19 -3 4 -6 -2 -5 -13z"/>
<path d="M6832 950 c0 -14 2 -19 5 -12 2 6 2 18 0 25 -3 6 -5 1 -5 -13z"/>
<path d="M5891 944 c0 -11 3 -14 6 -6 3 7 2 16 -1 19 -3 4 -6 -2 -5 -13z"/>
<path d="M7351 928 c0 -15 -5 -30 -11 -33 -5 -3 -10 -15 -10 -26 0 -10 -4 -19
-10 -19 -5 0 -10 -13 -10 -30 0 -16 -4 -30 -10 -30 -5 0 -10 -13 -10 -30 0
-16 -4 -30 -10 -30 -5 0 -10 -13 -10 -30 0 -16 -4 -30 -10 -30 -5 0 -9 -12 -9
-27 1 -21 2 -23 6 -8 3 11 9 24 14 30 5 5 9 19 9 31 0 13 5 26 10 29 6 3 10
15 10 26 0 10 4 27 9 37 10 19 23 52 41 99 6 17 10 40 7 50 -3 12 -5 9 -6 -9z"/>
<path d="M2910 910 c0 -11 -5 -29 -12 -40 -9 -15 -10 -27 -1 -52 14 -40 16
-468 2 -468 -5 0 -9 -7 -9 -16 0 -9 6 -14 13 -11 9 3 12 74 14 305 1 166 0
302 -3 302 -2 0 -4 -9 -4 -20z"/>
<path d="M5912 890 c0 -14 2 -19 5 -12 2 6 2 18 0 25 -3 6 -5 1 -5 -13z"/>
<path d="M5931 844 c0 -11 3 -14 6 -6 3 7 2 16 -1 19 -3 4 -6 -2 -5 -13z"/>
<path d="M5951 784 c0 -11 3 -14 6 -6 3 7 2 16 -1 19 -3 4 -6 -2 -5 -13z"/>
<path d="M4703 775 c-7 -8 -13 -24 -12 -37 0 -15 3 -18 6 -8 3 8 12 23 21 33
14 16 45 17 375 17 321 0 362 -2 379 -17 20 -18 25 -4 6 15 -19 19 -759 16
-775 -3z"/>
<path d="M5972 730 c0 -14 2 -19 5 -12 2 6 2 18 0 25 -3 6 -5 1 -5 -13z"/>
<path d="M4672 685 c0 -16 2 -22 5 -12 2 9 2 23 0 30 -3 6 -5 -1 -5 -18z"/>
<path d="M4651 633 c-1 -13 -5 -23 -11 -23 -5 0 -10 -13 -10 -29 0 -17 -4 -33
-10 -36 -5 -3 -10 -17 -10 -31 0 -13 -4 -24 -10 -24 -5 0 -9 -12 -9 -27 1 -21
2 -23 6 -8 3 11 8 25 12 30 4 6 13 30 20 55 7 25 18 55 23 67 6 11 8 27 5 35
-3 7 -6 3 -6 -9z"/>
<path d="M6012 630 c0 -14 2 -19 5 -12 2 6 2 18 0 25 -3 6 -5 1 -5 -13z"/>
<path d="M7230 595 c0 -8 2 -15 4 -15 2 0 6 7 10 15 3 8 1 15 -4 15 -6 0 -10
-7 -10 -15z"/>
<path d="M6031 584 c0 -11 3 -14 6 -6 3 7 2 16 -1 19 -3 4 -6 -2 -5 -13z"/>
<path d="M7210 550 c0 -11 2 -20 4 -20 2 0 6 9 9 20 3 11 1 20 -4 20 -5 0 -9
-9 -9 -20z"/>
<path d="M6051 524 c0 -11 3 -14 6 -6 3 7 2 16 -1 19 -3 4 -6 -2 -5 -13z"/>
<path d="M7191 483 c0 -18 -5 -33 -11 -33 -5 0 -10 -13 -10 -30 0 -16 -4 -30
-10 -30 -5 0 -10 -11 -10 -25 0 -17 -7 -29 -22 -35 -15 -5 -17 -9 -7 -9 22 -1
59 45 59 75 0 14 5 34 11 45 5 11 8 32 6 47 -4 25 -4 24 -6 -5z"/>
<path d="M4572 410 c0 -14 2 -19 5 -12 2 6 2 18 0 25 -3 6 -5 1 -5 -13z"/>
<path d="M2538 303 c29 -2 74 -2 100 0 26 2 2 3 -53 3 -55 0 -76 -1 -47 -3z"/>
<path d="M2763 303 c20 -2 54 -2 75 0 20 2 3 4 -38 4 -41 0 -58 -2 -37 -4z"/>
<path d="M4393 303 c15 -2 39 -2 55 0 15 2 2 4 -28 4 -30 0 -43 -2 -27 -4z"/>
<path d="M6018 303 c6 -2 18 -2 25 0 6 3 1 5 -13 5 -14 0 -19 -2 -12 -5z"/>
<path d="M6688 303 c12 -2 32 -2 45 0 12 2 2 4 -23 4 -25 0 -35 -2 -22 -4z"/>
</g>
</svg>
