<?xml version="1.0" standalone="no"?>
<!DOCTYPE svg PUBLIC "-//W3C//DTD SVG 20010904//EN"
 "http://www.w3.org/TR/2001/REC-SVG-20010904/DTD/svg10.dtd">
<svg version="1.0" xmlns="http://www.w3.org/2000/svg"
 width="1024.000000pt" height="1024.000000pt" viewBox="0 0 1024.000000 1024.000000"
 preserveAspectRatio="xMidYMid meet">
<metadata>
Created by potrace 1.16, written by Peter Selinger 2001-2019
</metadata>
<g transform="translate(0.000000,1024.000000) scale(0.100000,-0.100000)"
fill="#000000" stroke="none">
<path d="M4880 8470 c-25 -4 11 -5 80 -2 69 3 127 6 129 8 7 7 -162 1 -209 -6z"/>
<path d="M5168 8473 c29 -2 74 -2 100 0 26 2 2 3 -53 3 -55 0 -76 -1 -47 -3z"/>
<path d="M5338 8463 c12 -2 30 -2 40 0 9 3 -1 5 -23 4 -22 0 -30 -2 -17 -4z"/>
<path d="M4783 8453 c9 -2 23 -2 30 0 6 3 -1 5 -18 5 -16 0 -22 -2 -12 -5z"/>
<path d="M5513 8434 c64 -14 150 -36 190 -50 39 -13 79 -26 87 -28 80 -23 177
-69 172 -84 -2 -7 -7 -10 -12 -7 -4 3 -7 -9 -6 -27 0 -20 -4 -33 -14 -35 -13
-4 -13 -3 0 7 13 10 13 11 0 7 -8 -2 -14 -11 -14 -19 1 -10 -6 -13 -22 -10
-15 3 -21 9 -17 19 5 12 7 12 14 1 10 -14 9 -15 14 27 2 17 1 22 -2 13 -5 -21
-4 -21 -37 -8 -18 7 -25 6 -23 -2 1 -6 -4 -13 -12 -16 -8 -2 -11 0 -8 5 3 5 0
10 -8 10 -8 0 -15 -4 -15 -9 0 -5 -6 -6 -12 -2 -7 4 -9 3 -5 -1 10 -12 78 -15
71 -3 -3 4 0 8 5 8 17 0 13 -30 -4 -36 -12 -5 -13 -10 -4 -20 12 -15 35 -19
42 -6 2 4 2 1 1 -5 -2 -7 4 -13 12 -13 8 0 13 4 10 9 -3 5 11 8 32 7 26 -1 36
3 34 12 -1 8 2 11 8 7 6 -4 9 -9 6 -12 -3 -3 5 -14 17 -25 l22 -19 -27 16
c-29 18 -43 4 -27 -27 6 -11 5 -19 -3 -24 -6 -4 -8 -3 -4 4 3 6 -1 18 -10 26
-12 12 -12 16 -2 17 7 0 4 4 -7 8 -13 6 -23 4 -28 -6 -5 -7 -12 -11 -16 -9 -4
3 -7 -5 -7 -17 1 -12 -5 -22 -11 -23 -7 -1 -18 -2 -24 -3 -6 0 -9 -7 -6 -14 3
-8 -1 -14 -9 -14 -17 0 -18 13 -3 23 8 5 7 9 -1 14 -19 11 -36 -9 -34 -39 3
-37 3 -37 15 -21 9 13 10 13 6 -2 -3 -9 -1 -19 6 -21 7 -2 9 -7 6 -11 -3 -3
-19 8 -35 26 -16 17 -23 28 -16 24 7 -4 12 -2 12 6 0 8 -12 15 -26 16 -31 2
-44 9 -44 24 0 7 6 6 15 -2 8 -7 15 -9 15 -5 0 4 6 2 14 -4 10 -8 16 -9 21 -1
7 11 -19 25 -32 17 -4 -3 -13 1 -20 8 -16 18 14 30 33 14 11 -9 20 -7 39 5 29
19 31 26 9 26 -8 0 -12 -4 -9 -10 3 -5 -1 -10 -9 -10 -20 0 -20 4 0 38 l16 27
-26 -28 c-22 -24 -29 -27 -41 -17 -16 13 -10 34 6 25 5 -4 14 -3 20 1 8 4 7 9
-2 15 -16 10 -45 12 -36 2 4 -3 -1 -15 -10 -25 -10 -11 -13 -19 -8 -18 22 5
26 -1 11 -16 -9 -8 -14 -19 -11 -24 3 -5 1 -12 -5 -15 -7 -4 -7 -11 -2 -18 25
-34 21 -43 -22 -43 -27 1 -40 -3 -38 -12 3 -15 -14 -16 -23 -2 -4 6 -11 8 -16
5 -5 -4 -9 1 -9 10 0 13 4 14 20 5 16 -9 22 -8 26 5 4 9 13 14 20 11 8 -3 14
-1 14 4 0 6 -6 10 -14 10 -8 0 -17 8 -19 18 -3 9 -5 3 -6 -15 -1 -25 -5 -31
-17 -26 -9 3 -14 13 -11 24 3 12 0 16 -9 12 -8 -3 -14 1 -14 8 0 11 -3 11 -11
-1 -8 -12 -9 -11 -6 5 2 11 9 19 16 17 7 -1 10 2 6 8 -10 17 -35 -8 -34 -34 1
-11 -2 -32 -5 -45 -6 -25 -16 -41 -16 -25 0 5 -21 10 -47 11 -47 2 -88 23 -46
23 12 0 25 5 29 12 4 7 3 8 -4 4 -7 -4 -12 -2 -12 3 0 6 -10 11 -22 10 -22 0
-22 -1 -3 -9 16 -7 17 -9 3 -9 -9 -1 -18 -5 -20 -10 -1 -4 -43 -2 -93 5 -49 7
-153 12 -230 12 l-140 -1 160 -7 c169 -8 252 -19 377 -50 88 -23 232 -76 308
-115 43 -22 55 -24 62 -13 8 10 9 9 5 -4 -4 -12 8 -25 47 -46 148 -84 331
-252 454 -417 88 -117 199 -338 236 -468 54 -187 61 -239 61 -462 0 -183 -3
-223 -23 -314 -72 -320 -227 -591 -472 -824 -215 -204 -461 -334 -760 -399
-93 -20 -130 -22 -325 -21 -142 1 -243 6 -285 15 l-65 13 -3 417 -2 417 332 3
c383 5 414 10 594 98 266 130 430 339 496 633 16 75 19 116 15 222 -7 197 -56
332 -176 493 -115 152 -286 270 -466 321 -134 38 -181 41 -692 41 l-503 0 0
-1240 c0 -682 -3 -1240 -6 -1240 -13 0 -187 125 -256 184 -363 310 -571 791
-544 1261 23 409 183 766 470 1051 243 240 560 389 931 437 27 4 27 4 -6 6
-125 5 -452 -98 -614 -193 -27 -16 -56 -29 -62 -29 -7 0 -11 -2 -8 -5 2 -3
-15 -17 -39 -32 -46 -30 -74 -51 -142 -112 -22 -21 -46 -38 -53 -38 -6 0 -11
-4 -11 -9 0 -15 -74 -86 -85 -83 -5 2 -7 1 -3 -3 9 -9 -42 -66 -53 -59 -16 10
-9 24 11 24 11 0 20 4 20 10 0 5 -7 7 -15 4 -8 -4 -21 -1 -29 5 -11 9 -12 6
-8 -14 2 -15 0 -25 -7 -25 -6 0 -11 6 -11 13 0 6 -5 4 -11 -5 -14 -24 -33 -23
-26 2 3 11 1 23 -4 26 -5 3 -9 2 -8 -3 4 -21 -2 -43 -12 -43 -5 0 -7 6 -3 13
4 6 -2 4 -13 -6 -12 -10 -28 -19 -36 -21 -18 -2 -53 -36 -37 -36 6 0 9 -4 6
-9 -9 -14 18 -20 65 -15 l44 4 -22 -19 c-18 -15 -20 -21 -10 -29 9 -8 17 -3
29 18 13 23 14 31 4 39 -7 6 -17 7 -21 3 -5 -4 -5 1 -2 11 4 11 1 20 -8 23 -8
4 -15 10 -15 16 0 5 5 6 10 3 26 -16 59 -15 63 2 4 14 5 13 6 -4 0 -13 5 -23
11 -23 5 0 7 6 4 14 -7 17 12 31 21 16 9 -15 -15 -42 -32 -36 -7 3 -13 -1 -13
-10 0 -9 5 -12 12 -8 7 4 8 3 4 -5 -4 -6 -12 -8 -18 -5 -7 4 -8 2 -4 -4 4 -6
-7 -30 -24 -53 -16 -23 -30 -37 -30 -31 0 7 -7 12 -15 12 -8 0 -15 5 -15 10 0
6 4 10 8 10 5 0 9 7 9 15 0 18 -24 28 -33 13 -4 -7 -3 -8 4 -4 7 4 12 1 12 -8
0 -8 -8 -13 -17 -11 -10 1 -17 10 -17 19 1 9 -4 16 -12 16 -8 0 -11 -6 -7 -17
5 -12 3 -14 -8 -8 -8 5 -5 -1 5 -13 12 -13 23 -19 30 -14 7 5 18 1 29 -10 14
-15 14 -18 2 -18 -8 0 -15 5 -15 11 0 6 -8 8 -17 5 -22 -7 -36 2 -51 30 -9 17
-8 24 3 34 19 16 9 37 -21 43 -32 6 -31 -1 3 -14 20 -8 24 -12 14 -22 -9 -9
-14 -9 -21 3 -5 8 -10 11 -10 5 0 -5 -7 -2 -15 9 -8 10 -20 16 -28 13 -8 -3
-20 0 -27 6 -10 9 -11 9 -6 0 3 -6 -2 -16 -11 -22 -10 -6 -13 -11 -7 -11 5 0
16 6 23 13 12 10 13 8 7 -8 l-6 -20 16 20 c14 19 16 19 28 3 7 -10 19 -18 26
-18 7 0 10 -3 7 -6 -3 -4 -1 -16 5 -28 7 -11 13 -26 14 -32 3 -17 -14 -39 -23
-31 -4 5 -1 12 7 17 14 9 7 14 -13 11 -5 -1 -6 3 -2 9 6 9 -8 15 -29 11 -12
-2 -36 20 -31 29 3 5 -5 6 -17 2 -12 -3 -17 -7 -10 -10 7 -2 10 -7 8 -11 -3
-4 0 -13 6 -21 8 -12 9 -12 4 3 -3 9 -1 17 4 17 6 0 10 -9 10 -20 0 -22 -15
-27 -26 -9 -4 8 -9 7 -14 -2 -7 -10 -11 -10 -24 0 -9 8 -16 9 -16 3 0 -6 6
-13 13 -15 6 -3 2 -6 -10 -6 -28 -1 -31 -21 -4 -21 11 0 23 5 26 10 3 6 10 10
15 10 14 0 1 -27 -13 -28 -20 -1 -56 -10 -67 -17 -6 -3 -10 1 -10 9 0 9 -5 16
-11 16 -8 0 -8 4 0 13 8 10 7 14 -4 14 -7 0 -13 -3 -13 -6 3 -14 -15 -41 -28
-41 -9 0 -12 10 -9 31 4 30 3 31 -16 13 -27 -24 -24 -15 22 72 51 97 64 116
74 106 5 -4 5 -1 1 5 -8 14 40 91 116 188 27 33 55 69 63 80 77 99 286 283
425 375 100 65 121 81 80 60 -106 -54 -282 -191 -405 -315 -305 -306 -495
-678 -565 -1105 -18 -109 -24 -394 -11 -510 108 -932 840 -1658 1773 -1759
816 -89 1618 365 1984 1124 133 278 193 539 194 842 1 659 -326 1277 -871
1649 -57 39 -70 44 -87 35 -18 -9 -23 -8 -32 9 -12 22 -1 27 18 8 6 -6 14 -9
18 -6 7 7 -93 64 -199 113 -142 66 -450 156 -527 154 -14 0 28 -11 93 -25z
m522 -187 c17 -10 23 -17 15 -14 -12 4 -15 -2 -12 -27 3 -25 0 -33 -12 -33 -9
0 -13 5 -8 11 13 18 8 33 -18 56 l-25 22 -6 -34 c-6 -29 -7 -30 -8 -6 -3 60
12 65 74 25z m-36 -20 c8 -10 7 -14 -4 -14 -8 0 -15 6 -15 14 0 7 2 13 4 13 2
0 9 -6 15 -13z m75 -27 c7 0 13 -7 13 -15 0 -10 -4 -12 -12 -5 -7 5 -14 8 -16
5 -3 -2 -5 6 -6 18 0 12 1 16 4 10 3 -7 10 -13 17 -13z m-199 -20 c3 -5 1 -10
-4 -10 -6 0 -11 5 -11 10 0 6 2 10 4 10 3 0 8 -4 11 -10z m295 -32 c0 -6 -6
-5 -15 2 -8 7 -15 14 -15 16 0 2 7 1 15 -2 8 -4 15 -11 15 -16z m-215 -47 c-6
-5 -25 10 -25 20 0 5 6 4 14 -3 8 -7 12 -15 11 -17z m145 5 c-7 -7 -13 -7 -20
0 -6 6 -3 10 10 10 13 0 16 -4 10 -10z m-490 -46 c-8 -5 -11 -10 -6 -10 5 0 3
-6 -3 -14 -10 -12 -8 -14 14 -12 14 2 28 -1 31 -6 10 -16 -3 -20 -35 -13 -27
6 -30 10 -25 33 11 52 14 56 27 43 9 -9 9 -14 -3 -21z m166 -11 c1 -7 5 -23 9
-34 5 -16 4 -17 -4 -5 -5 9 -11 22 -13 30 -2 8 -7 19 -13 23 -6 5 -4 7 4 5 8
-2 15 -11 17 -19z m118 -7 c3 -5 -1 -9 -9 -9 -8 0 -12 4 -9 9 3 4 7 8 9 8 2 0
6 -4 9 -8z m-130 -28 c3 -8 2 -12 -4 -9 -6 3 -10 10 -10 16 0 14 7 11 14 -7z
m-20 -10 c6 -15 4 -15 -11 -3 -10 7 -20 15 -22 16 -2 2 3 3 11 3 9 0 19 -7 22
-16z m-64 -15 c0 -6 -4 -7 -10 -4 -5 3 -10 11 -10 16 0 6 5 7 10 4 6 -3 10
-11 10 -16z m30 -10 c0 -6 -4 -7 -10 -4 -5 3 -10 11 -10 16 0 6 5 7 10 4 6 -3
10 -11 10 -16z m145 -69 c3 -6 -1 -7 -9 -4 -18 7 -21 14 -7 14 6 0 13 -4 16
-10z m-894 -324 c-6 -7 -8 -15 -5 -19 3 -3 1 -14 -6 -24 -10 -16 -10 -15 -4 6
5 18 3 22 -7 15 -12 -6 -12 -5 0 9 17 21 -2 23 -22 2 -13 -13 -16 -13 -21 1
-4 10 -16 14 -37 12 -25 -2 -33 -8 -36 -26 -2 -16 1 -21 9 -16 7 4 8 3 4 -5
-9 -15 -29 -3 -22 14 5 15 -13 35 -33 35 -11 0 -10 -4 4 -20 10 -11 16 -20 12
-20 -3 0 -14 -3 -24 -6 -14 -5 -15 -4 -4 4 12 9 12 12 -1 25 -8 9 -24 14 -34
13 -15 -2 -19 -10 -17 -36 1 -17 1 -30 0 -29 -2 2 -9 13 -17 23 -12 16 -12 18
-1 12 9 -6 12 -5 9 4 -2 7 -15 17 -27 22 -20 7 -22 6 -12 -6 10 -12 9 -14 -6
-11 -10 1 -17 7 -16 13 3 13 -24 9 -38 -5 -7 -7 -13 -23 -14 -37 -2 -19 1 -23
13 -19 15 4 15 3 2 -6 -22 -16 -30 -13 -30 8 0 11 -5 23 -12 27 -7 5 -9 2 -6
-8 4 -8 -2 -20 -13 -27 -11 -6 -17 -16 -14 -21 10 -16 25 -11 19 5 -4 8 -1 15
6 15 6 0 10 -8 8 -17 -2 -10 -11 -17 -21 -17 -22 2 -22 -13 1 -20 13 -4 13 -4
-3 -3 -11 0 -30 -4 -42 -11 -18 -10 -24 -9 -37 4 -22 21 -20 24 12 23 24 0 25
-1 7 -9 -19 -8 -19 -9 1 -9 20 -1 33 14 40 47 1 8 -4 11 -16 7 -11 -3 -20 0
-23 7 -2 7 -2 2 0 -10 3 -17 0 -22 -9 -19 -7 2 -21 0 -31 -5 -15 -8 -16 -12
-5 -25 7 -9 12 -19 12 -22 -1 -3 2 -5 8 -3 5 1 6 -2 3 -9 -5 -7 -15 -3 -29 10
-22 21 -23 21 -39 3 -10 -10 -14 -21 -11 -24 3 -3 1 -8 -4 -11 -4 -3 -8 7 -8
24 0 21 4 28 15 27 9 -2 15 3 13 10 -1 8 1 11 5 9 5 -3 13 1 20 8 9 10 8 14
-9 18 -11 3 -17 10 -14 16 4 5 2 12 -4 16 -9 5 -15 -15 -11 -37 0 -5 -4 -8
-10 -8 -7 0 -9 11 -5 30 3 17 2 30 -2 30 -4 0 -7 14 -8 30 l-1 30 304 -1 c243
-1 302 -3 294 -13z m82 7 c-7 -2 -21 -2 -30 0 -10 3 -4 5 12 5 17 0 24 -2 18
-5z m77 3 c0 -2 -13 -6 -30 -8 -16 -3 -30 -1 -30 4 0 4 14 8 30 8 17 0 30 -2
30 -4z m103 -3 c-7 -2 -19 -2 -25 0 -7 3 -2 5 12 5 14 0 19 -2 13 -5z m60 0
c-7 -2 -21 -2 -30 0 -10 3 -4 5 12 5 17 0 24 -2 18 -5z m-620 -56 c-6 -10 -63
-5 -63 6 0 5 7 7 15 4 8 -4 17 -2 20 4 4 5 3 9 -2 8 -17 -3 -24 1 -18 11 4 6
15 3 30 -7 12 -10 21 -21 18 -26z m215 24 c-7 -9 -13 -18 -15 -20 -1 -2 -1 5
0 16 0 11 7 20 14 20 10 0 10 -4 1 -16z m187 -1 c10 -11 16 -20 13 -20 -3 0
-13 9 -23 20 -10 11 -16 20 -13 20 3 0 13 -9 23 -20z m-315 6 c0 -3 -4 -8 -10
-11 -5 -3 -10 -1 -10 4 0 6 5 11 10 11 6 0 10 -2 10 -4z m234 -18 c-5 -8 -1
-9 12 -4 14 5 16 4 7 -5 -13 -13 -37 -3 -28 12 4 5 8 9 11 9 3 0 2 -5 -2 -12z
m-72 -5 c-10 -4 -10 -8 0 -21 11 -15 11 -15 -3 -5 -9 7 -19 10 -23 6 -4 -4 -4
0 0 10 3 9 14 17 23 16 11 0 12 -2 3 -6z m-144 -21 c15 12 16 11 4 -4 -8 -10
-20 -14 -30 -11 -14 6 -15 4 -5 -8 10 -12 8 -15 -7 -15 -21 0 -21 12 0 35 12
13 16 14 18 3 3 -11 7 -11 20 0z m39 -7 c0 -8 -4 -12 -9 -9 -5 3 -6 10 -3 15
9 13 12 11 12 -6z m-113 -4 c3 -5 -1 -14 -8 -20 -12 -10 -13 -8 -9 8 6 23 9
25 17 12z m-24 -5 c0 -3 -4 -8 -10 -11 -5 -3 -10 -1 -10 4 0 6 5 11 10 11 6 0
10 -2 10 -4z m-33 -12 c-3 -3 -12 -4 -19 -1 -8 3 -5 6 6 6 11 1 17 -2 13 -5z
m-40 -24 c1 -13 -4 -20 -15 -19 -10 0 -12 3 -5 5 7 3 9 12 6 20 -3 8 -1 14 4
14 5 0 9 -9 10 -20z m-843 -6 c8 -22 -3 -39 -17 -25 -7 7 -14 7 -23 1 -8 -7
-13 -6 -18 5 -4 11 -2 14 6 9 7 -5 9 -2 6 7 -4 10 2 15 17 17 13 1 26 -5 29
-14z m879 2 c4 -10 1 -13 -8 -9 -8 3 -12 9 -9 14 7 12 11 11 17 -5z m26 0 c9
-11 9 -16 -1 -22 -7 -4 -10 -4 -6 1 4 4 3 14 -3 22 -6 7 -9 13 -6 13 2 0 10
-6 16 -14z m-109 -32 c0 -8 -19 -13 -24 -6 -3 5 1 9 9 9 8 0 15 -2 15 -3z m50
3 c0 -2 -9 -12 -20 -22 -24 -21 -27 -14 -4 9 15 15 24 20 24 13z m-150 -42 c0
-2 -5 -7 -12 -11 -6 -4 -8 -3 -5 3 4 6 0 14 -9 17 -11 4 -15 2 -11 -8 3 -8 -1
-20 -9 -26 -10 -9 -14 -9 -14 -1 0 6 5 11 11 11 5 0 7 5 4 10 -11 18 5 31 26
20 10 -6 19 -13 19 -15z m40 5 c0 -5 -2 -10 -4 -10 -3 0 -8 5 -11 10 -3 6 -1
10 4 10 6 0 11 -4 11 -10z m74 -46 c3 -8 2 -12 -4 -9 -6 3 -10 10 -10 16 0 14
7 11 14 -7z m-980 -29 c-4 -11 -2 -13 9 -9 24 9 27 -9 6 -35 -12 -14 -19 -18
-20 -10 0 8 -5 5 -10 -6 -9 -19 -9 -18 -5 3 3 14 -1 22 -9 22 -8 0 -16 4 -19
9 -4 5 4 7 16 3 20 -5 21 -3 10 10 -10 13 -10 17 0 21 23 9 28 7 22 -8z m-231
-20 c-3 -9 -8 -14 -10 -11 -3 3 -2 9 2 15 9 16 15 13 8 -4z m0 -29 c4 4 7 5 7
2 0 -3 -9 -13 -20 -23 -17 -15 -20 -16 -15 -3 4 9 2 19 -4 22 -6 4 -7 14 -4
22 5 14 8 13 18 -5 6 -12 14 -18 18 -15z m67 -8 c3 -1 16 5 30 12 23 12 24 12
11 -3 -7 -9 -10 -25 -7 -34 4 -11 -2 -8 -13 7 -18 23 -25 10 -9 -15 4 -6 -2
-11 -13 -12 -16 -2 -17 1 -9 18 6 10 7 19 2 19 -5 0 -15 -11 -22 -25 -15 -28
-33 -28 -38 -1 -2 11 4 19 17 23 12 3 24 17 28 32 7 26 7 26 12 3 3 -13 8 -24
11 -24z m290 38 c0 -2 -7 -6 -15 -10 -8 -3 -15 -1 -15 4 0 6 7 10 15 10 8 0
15 -2 15 -4z m-40 -21 c0 -8 -4 -15 -10 -15 -5 0 -7 7 -4 15 4 8 8 15 10 15 2
0 4 -7 4 -15z m-167 -12 c-3 -7 -9 -10 -14 -7 -14 8 -11 21 5 21 8 0 12 -6 9
-14z m137 7 c0 -5 -2 -10 -4 -10 -3 0 -8 5 -11 10 -3 6 -1 10 4 10 6 0 11 -4
11 -10z m-327 -30 c-4 -14 0 -20 11 -20 9 0 16 -4 16 -10 0 -5 -7 -7 -15 -4
-9 4 -15 0 -15 -10 0 -10 -6 -13 -16 -9 -11 4 -12 8 -4 13 6 4 11 11 10 16 -2
13 7 44 13 44 3 0 3 -9 0 -20z m194 -22 c18 -18 33 -36 33 -41 0 -5 -8 1 -18
14 -13 15 -21 19 -26 11 -4 -7 -1 -12 6 -12 9 0 9 -3 -2 -10 -13 -9 -13 -11 0
-21 13 -9 13 -10 0 -6 -8 2 -15 10 -15 18 0 8 -4 17 -10 21 -6 5 -5 8 3 8 18
0 15 21 -5 36 -10 7 -14 14 -8 14 5 0 24 -14 42 -32z m147 24 c3 -5 -1 -9 -9
-9 -8 0 -12 4 -9 9 3 4 7 8 9 8 2 0 6 -4 9 -8z m66 4 c0 -3 -4 -8 -10 -11 -5
-3 -10 -1 -10 4 0 6 5 11 10 11 6 0 10 -2 10 -4z m-263 -42 c-3 -4 -2 -16 4
-28 9 -19 9 -19 -4 -3 -8 9 -20 17 -28 18 -8 0 -5 4 6 9 25 11 30 12 22 4z
m-53 -19 c-4 -11 -13 -13 -28 -9 -19 6 -20 5 -6 -11 14 -17 14 -17 -7 -4 -19
11 -20 15 -8 22 8 4 19 6 24 2 5 -3 12 -1 16 5 9 15 15 12 9 -5z m256 1 c-7
-7 -13 -7 -20 0 -6 6 -3 10 10 10 13 0 16 -4 10 -10z m1792 -17 c220 -85 343
-261 341 -489 -3 -216 -151 -400 -374 -464 -42 -12 -119 -16 -361 -19 l-308
-3 0 504 0 503 318 -3 c312 -4 318 -4 384 -29z m-2162 7 c0 -3 -4 -8 -10 -11
-5 -3 -10 -1 -10 4 0 6 5 11 10 11 6 0 10 -2 10 -4z m142 -14 c-17 -5 -15 -22
5 -46 13 -15 11 -15 -9 3 -19 17 -25 28 -18 36 5 7 7 15 3 19 -4 4 1 4 12 0
11 -5 14 -9 7 -12z m-105 -13 c2 -21 1 -21 -13 -3 -14 18 -15 18 -9 -6 5 -19
4 -22 -4 -10 -9 12 -11 13 -11 1 0 -8 -3 -12 -6 -9 -9 9 15 48 29 48 7 0 13
-10 14 -21z m26 -36 c-5 -13 -2 -15 13 -9 14 5 16 4 7 -5 -15 -15 -32 -4 -30
21 1 10 5 17 9 14 4 -3 4 -12 1 -21z m-97 -40 c-2 -9 -8 -19 -14 -21 -6 -2 -8
5 -5 17 6 25 22 28 19 4z m239 7 c-3 -5 -12 -10 -18 -10 -7 0 -6 4 3 10 19 12
23 12 15 0z m-145 -14 c0 -3 -4 -8 -10 -11 -5 -3 -10 -1 -10 4 0 6 5 11 10 11
6 0 10 -2 10 -4z m105 -6 c-3 -5 -12 -10 -18 -10 -7 0 -6 4 3 10 19 12 23 12
15 0z m-165 -46 c0 -8 -5 -14 -11 -14 -5 0 -7 5 -4 10 4 6 1 19 -7 28 -12 15
-11 16 5 3 9 -7 17 -20 17 -27z"/>
<path d="M4490 7583 c0 -7 -6 -12 -12 -10 -7 1 -14 -9 -15 -23 -2 -21 -1 -22
5 -5 15 42 39 24 32 -24 -2 -13 0 -13 16 0 9 7 20 13 23 11 3 -1 7 6 9 18 2
11 8 20 13 20 5 0 9 4 9 9 0 10 -14 9 -44 -4 -12 -5 -21 -3 -27 6 -6 10 -9 10
-9 2z m53 -21 c-4 -16 -33 -28 -33 -14 0 4 31 31 37 32 0 0 -1 -8 -4 -18z"/>
<path d="M4585 7579 c-4 -6 -5 -12 -2 -15 2 -3 7 2 10 11 7 17 1 20 -8 4z"/>
<path d="M4446 7516 c5 -12 2 -15 -12 -10 -18 5 -18 5 -1 -6 25 -16 44 2 22
20 -13 11 -14 10 -9 -4z"/>
<path d="M3575 7290 c3 -5 8 -10 11 -10 2 0 4 5 4 10 0 6 -5 10 -11 10 -5 0
-7 -4 -4 -10z"/>
<path d="M3365 7240 c-3 -5 -1 -10 4 -10 6 0 11 5 11 10 0 6 -2 10 -4 10 -3 0
-8 -4 -11 -10z"/>
<path d="M4728 8443 c6 -2 18 -2 25 0 6 3 1 5 -13 5 -14 0 -19 -2 -12 -5z"/>
<path d="M4678 8433 c6 -2 18 -2 25 0 6 3 1 5 -13 5 -14 0 -19 -2 -12 -5z"/>
<path d="M4475 8380 c-13 -5 -14 -9 -5 -9 8 0 24 4 35 9 13 5 14 9 5 9 -8 0
-24 -4 -35 -9z"/>
<path d="M4238 8279 c-43 -21 -78 -41 -78 -44 0 -5 159 72 169 81 14 13 -25
-2 -91 -37z"/>
<path d="M5827 8279 c7 -7 15 -10 18 -7 3 3 -2 9 -12 12 -14 6 -15 5 -6 -5z"/>
<path d="M5755 8270 c-3 -6 1 -7 9 -4 18 7 21 14 7 14 -6 0 -13 -4 -16 -10z"/>
<path d="M5705 8249 c-5 -8 -5 -11 0 -7 4 4 13 1 20 -8 10 -14 12 -14 25 3 11
14 11 16 0 6 -10 -10 -16 -9 -25 4 -10 13 -13 14 -20 2z"/>
<path d="M5770 8250 c0 -5 5 -10 11 -10 5 0 7 5 4 10 -3 6 -8 10 -11 10 -2 0
-4 -4 -4 -10z"/>
<path d="M5920 8240 c0 -5 5 -10 11 -10 5 0 7 5 4 10 -3 6 -8 10 -11 10 -2 0
-4 -4 -4 -10z"/>
<path d="M5566 8183 c-6 -14 -5 -15 5 -6 7 7 10 15 7 18 -3 3 -9 -2 -12 -12z"/>
<path d="M5710 8175 c0 -8 2 -15 4 -15 2 0 6 7 10 15 3 8 1 15 -4 15 -6 0 -10
-7 -10 -15z"/>
<path d="M5451 8153 c7 -12 15 -20 18 -17 3 2 -3 12 -13 22 -17 16 -18 16 -5
-5z"/>
<path d="M5523 8163 c-15 -5 -17 -23 -4 -23 5 0 11 7 15 15 3 8 4 15 3 14 -1
0 -8 -3 -14 -6z"/>
<path d="M5625 8159 c-4 -6 -5 -12 -2 -15 2 -3 7 2 10 11 7 17 1 20 -8 4z"/>
<path d="M5674 8161 c4 -6 0 -11 -8 -11 -10 0 -13 -6 -10 -15 4 -8 12 -15 20
-15 8 0 11 -6 8 -15 -4 -11 -2 -13 9 -9 19 7 31 35 14 33 -25 -3 -38 1 -32 12
4 6 13 8 21 5 22 -8 17 2 -7 15 -15 8 -19 8 -15 0z"/>
<path d="M5551 8143 c-1 -12 5 -25 12 -29 6 -4 9 -4 5 1 -4 4 -2 15 5 23 8 11
8 14 0 9 -6 -4 -14 -1 -16 5 -3 7 -6 3 -6 -9z"/>
<path d="M5838 8132 c-16 -9 -28 -21 -28 -26 0 -4 6 -3 13 3 8 6 17 8 20 5 4
-4 18 -8 32 -10 20 -2 25 1 21 13 -3 8 -6 19 -6 24 0 14 -22 10 -52 -9z"/>
<path d="M5328 8134 c10 -5 10 -9 0 -22 -12 -15 -11 -16 4 -3 10 7 26 10 35 7
12 -5 14 -4 8 2 -5 5 -21 12 -35 16 -14 3 -19 3 -12 0z"/>
<path d="M5495 8119 c-4 -6 -5 -12 -2 -15 2 -3 7 2 10 11 7 17 1 20 -8 4z"/>
<path d="M5635 8120 c-3 -5 -1 -10 4 -10 6 0 11 5 11 10 0 6 -2 10 -4 10 -3 0
-8 -4 -11 -10z"/>
<path d="M5455 8110 c4 -6 11 -8 16 -5 14 9 11 15 -7 15 -8 0 -12 -5 -9 -10z"/>
<path d="M5523 8103 c16 -4 16 -6 4 -16 -10 -8 -12 -18 -7 -32 7 -16 9 -17 9
-3 1 9 10 23 21 31 21 14 21 14 -2 21 -13 3 -27 5 -33 5 -5 -1 -2 -3 8 -6z"/>
<path d="M5410 8079 c0 -5 5 -7 10 -4 6 3 10 8 10 11 0 2 -4 4 -10 4 -5 0 -10
-5 -10 -11z"/>
<path d="M5708 8072 c-3 -11 0 -19 8 -19 16 0 19 23 5 31 -5 3 -11 -2 -13 -12z"/>
<path d="M5545 8060 c-3 -5 -1 -10 4 -10 6 0 11 5 11 10 0 6 -2 10 -4 10 -3 0
-8 -4 -11 -10z"/>
<path d="M4080 7776 c0 -2 7 -6 15 -10 8 -3 15 -1 15 4 0 6 -7 10 -15 10 -8 0
-15 -2 -15 -4z"/>
<path d="M4001 7737 c2 -1 13 -9 24 -17 19 -14 19 -14 6 3 -7 9 -18 17 -24 17
-6 0 -8 -1 -6 -3z"/>
<path d="M3940 7680 c-12 -7 -10 -9 7 -7 12 0 19 5 17 9 -6 10 -6 10 -24 -2z"/>
<path d="M3970 7650 c-16 -14 -27 -17 -34 -10 -13 13 -26 13 -26 -1 0 -5 4 -8
9 -4 17 10 22 -13 6 -28 -13 -13 -13 -16 0 -21 8 -3 14 0 12 7 -1 7 4 11 11 9
8 -1 11 2 7 8 -3 5 6 21 22 35 15 13 25 25 22 25 -3 0 -16 -9 -29 -20z"/>
<path d="M3856 7642 c-2 -4 -1 -14 3 -21 6 -10 10 -9 14 3 6 16 -8 32 -17 18z"/>
<path d="M3729 7618 c-5 -18 -6 -38 -1 -34 7 8 12 36 6 36 -2 0 -4 -1 -5 -2z"/>
<path d="M3836 7588 c3 -4 11 -5 19 -1 21 7 19 12 -4 10 -11 0 -18 -5 -15 -9z"/>
<path d="M3875 7570 c-2 -3 5 -7 16 -7 10 -1 19 2 19 6 0 9 -29 10 -35 1z"/>
<path d="M3749 7568 c-6 -18 -3 -46 3 -42 5 4 7 12 4 19 -3 8 3 16 12 18 16 4
15 5 0 6 -10 0 -18 0 -19 -1z"/>
<path d="M3640 7549 c0 -5 5 -7 10 -4 6 3 10 8 10 11 0 2 -4 4 -10 4 -5 0 -10
-5 -10 -11z"/>
<path d="M3563 7518 c1 -21 4 -24 14 -16 15 12 18 22 4 13 -5 -3 -12 3 -14 12
-3 10 -4 6 -4 -9z"/>
<path d="M3697 7529 c7 -9 9 -20 5 -25 -4 -4 1 -2 11 5 9 7 17 16 17 19 0 3
-3 2 -7 -1 -3 -4 -13 -1 -22 6 -14 10 -14 10 -4 -4z"/>
<path d="M3629 7523 c0 -5 -2 -16 -4 -25 -2 -12 2 -15 13 -11 11 5 13 3 7 -7
-6 -9 -4 -11 5 -5 10 6 10 10 -3 20 -12 9 -14 14 -5 23 9 9 9 12 0 12 -7 0
-12 -3 -13 -7z"/>
<path d="M3507 7419 c7 -7 15 -10 18 -7 3 3 -2 9 -12 12 -14 6 -15 5 -6 -5z"/>
<path d="M3585 7410 c5 -17 4 -21 -5 -15 -9 6 -11 4 -6 -4 5 -7 11 -10 14 -7
3 4 17 -1 31 -10 l26 -15 -22 19 c-12 11 -21 21 -19 23 2 2 -3 10 -11 18 -13
12 -14 11 -8 -9z"/>
<path d="M3455 7402 c3 -3 -1 -12 -7 -21 -8 -10 -4 -9 10 3 26 23 26 23 7 23
-8 0 -13 -3 -10 -5z"/>
<path d="M3496 7385 c-3 -8 -1 -15 4 -15 6 0 10 7 10 15 0 8 -2 15 -4 15 -2 0
-6 -7 -10 -15z"/>
<path d="M3444 7346 c-3 -8 -4 -23 -1 -33 3 -12 5 -9 6 9 0 14 7 29 14 31 9 4
9 6 -1 6 -7 1 -15 -5 -18 -13z"/>
<path d="M3381 7334 c0 -11 3 -14 6 -6 3 7 2 16 -1 19 -3 4 -6 -2 -5 -13z"/>
<path d="M2577 3993 c-4 -3 -7 -458 -7 -1010 l0 -1003 210 0 210 0 0 339 0
339 308 5 c272 3 316 6 389 25 254 66 417 218 478 447 25 93 30 236 11 325
-39 187 -172 361 -337 439 -106 51 -206 77 -350 90 -123 12 -901 15 -912 4z
m964 -378 c88 -22 145 -58 180 -113 41 -64 52 -114 47 -207 -5 -93 -28 -145
-84 -195 -85 -75 -165 -90 -471 -90 l-223 0 0 308 c0 170 2 311 4 313 2 2 112
3 244 2 184 -1 255 -5 303 -18z"/>
<path d="M4877 3983 c-2 -10 -178 -465 -389 -1010 l-385 -993 231 0 231 0 81
223 81 222 391 3 392 2 13 -32 c8 -18 45 -120 83 -225 l69 -193 231 0 231 0
-304 783 c-167 430 -343 883 -392 1007 l-87 225 -236 3 c-218 2 -236 1 -241
-15z m389 -842 c68 -195 122 -356 120 -358 -1 -2 -124 -2 -273 -1 l-269 3 133
365 c73 201 136 372 139 380 8 19 -2 43 150 -389z"/>
<path d="M5816 3958 c9 -24 42 -117 74 -208 76 -215 595 -1647 637 -1757 4
-10 62 -13 244 -13 183 0 241 3 244 13 2 6 113 314 246 682 133 369 288 801
345 960 58 160 111 307 119 328 l15 37 -222 -2 -221 -3 -257 -769 -257 -768
-86 247 c-48 137 -169 484 -270 771 l-182 524 -222 0 -222 0 15 -42z"/>
</g>
</svg>
